G04 ================== begin FILE IDENTIFICATION RECORD ==================*
G04 Layout Name:  touchcontroller.brd*
G04 Film Name:    BOTTOM*
G04 File Format:  Gerber RS274X*
G04 File Origin:  Cadence Allegro -unreleased*
G04 Origin Date:  Sun Feb 16 15:49:09 2020*
G04 *
G04 Layer:  BOARD GEOMETRY/DESIGN_OUTLINE*
G04 Layer:  BOARD GEOMETRY/CUTOUT*
G04 Layer:  ETCH/BOTTOM*
G04 Layer:  PIN/BOTTOM*
G04 Layer:  VIA CLASS/BOTTOM*
G04 *
G04 Offset:    (0.00 0.00)*
G04 Mirror:    No*
G04 Mode:      Positive*
G04 Rotation:  0*
G04 FullContactRelief:  No*
G04 UndefLineWidth:     7.00*
G04 ================== end FILE IDENTIFICATION RECORD ====================*
%FSLAX25Y25*MOIN*%
%IR0*IPPOS*OFA0.00000B0.00000*MIA0B0*SFA1.00000B1.00000*%
%ADD12C,.024*%
%ADD13C,.055*%
%ADD11C,.058*%
%ADD10R,.058X.058*%
%ADD14C,.01*%
%ADD15C,.02*%
%ADD16C,.005*%
%ADD17C,.007*%
%ADD18C,.06504*%
%ADD20R,.29004X.04336*%
%ADD19C,.06804*%
G75*
%LPD*%
G75*
G36*
G01X754430Y971000D02*
X787500D01*
X788000Y970500D01*
Y845000D01*
X784000Y841000D01*
X698500D01*
X692500Y835000D01*
X687500D01*
X681500Y829000D01*
Y822000D01*
X682000Y821500D01*
X684000D01*
X685000Y820500D01*
Y811500D01*
X683500Y810000D01*
X680000D01*
X677500Y807500D01*
Y787500D01*
X671500Y781500D01*
X663500D01*
X648000Y797000D01*
Y816500D01*
X648500Y817000D01*
X659000D01*
X662500Y813500D01*
X673000D01*
X674000Y814500D01*
Y821500D01*
X671500Y824000D01*
X668500D01*
X666002Y826499D01*
Y843500D01*
G03X665708Y844208I-1002J-1D01*
G01X664684Y845233D01*
X664693Y845327D01*
G03X664702Y845500I-1693J175D01*
G03X663000Y843798I-1702J0D01*
G03X663173Y843807I-2J1702D01*
G01X663267Y843816D01*
X663998Y843085D01*
Y834500D01*
X593500D01*
X591500Y836500D01*
Y971000D01*
X620570D01*
G02X620781Y970261I-1J-400D01*
G03X619248Y967500I1720J-2761D01*
G03X625752I3252J0D01*
G03X624219Y970261I-3253J0D01*
G02X624430Y971000I212J339D01*
G01X630570D01*
G02X630781Y970261I-1J-400D01*
G03X629248Y967500I1720J-2761D01*
G03X635752I3252J0D01*
G03X634219Y970261I-3253J0D01*
G02X634430Y971000I212J339D01*
G01X730570D01*
G02X730781Y970261I-1J-400D01*
G03X729248Y967500I1720J-2761D01*
G03X731498Y964406I3252J0D01*
G01Y955751D01*
G03X729098Y952500I1002J-3251D01*
G03X735902I3402J0D01*
G03X733502Y955751I-3402J0D01*
G01Y964406D01*
G03X735752Y967500I-1002J3094D01*
G03X734219Y970261I-3253J0D01*
G02X734430Y971000I212J339D01*
G01X740570D01*
G02X740781Y970261I-1J-400D01*
G03X739248Y967500I1720J-2761D01*
G03X741498Y964406I3252J0D01*
G01Y955751D01*
G03X739098Y952500I1002J-3251D01*
G03X739493Y950909I3402J0D01*
G01X734585Y946002D01*
X660415D01*
X655507Y950909D01*
G03X655902Y952500I-3007J1591D01*
G03X652500Y949098I-3402J0D01*
G03X653965Y949430I-1J3402D01*
G01X654093Y949491D01*
X659292Y944292D01*
G03X660000Y943998I709J708D01*
G01X735000D01*
G03X735708Y944292I-1J1002D01*
G01X740907Y949491D01*
X741035Y949430D01*
G03X742500Y949098I1466J3070D01*
G03X745902Y952500I0J3402D01*
G03X743502Y955751I-3402J0D01*
G01Y964406D01*
G03X745752Y967500I-1002J3094D01*
G03X744219Y970261I-3253J0D01*
G02X744430Y971000I212J339D01*
G01X750570D01*
G02X750781Y970261I-1J-400D01*
G03X749248Y967500I1720J-2761D01*
G03X755752I3252J0D01*
G03X754219Y970261I-3253J0D01*
G02X754430Y971000I212J339D01*
G37*
%LPC*%
G75*
G36*
G01X619098Y916100D02*
Y921900D01*
G02X619600Y922402I502J0D01*
G01X625400D01*
G02X625902Y921900I0J-502D01*
G01Y916100D01*
G02X625400Y915598I-502J0D01*
G01X619600D01*
G02X619098Y916100I0J502D01*
G37*
G36*
G01Y949600D02*
Y955400D01*
G02X619600Y955902I502J0D01*
G01X625400D01*
G02X625902Y955400I0J-502D01*
G01Y949600D01*
G02X625400Y949098I-502J0D01*
G01X619600D01*
G02X619098Y949600I0J502D01*
G37*
G36*
G01X681598Y929100D02*
Y934900D01*
G02X682100Y935402I502J0D01*
G01X687900D01*
G02X688402Y934900I0J-502D01*
G01Y929100D01*
G02X687900Y928598I-502J0D01*
G01X682100D01*
G02X681598Y929100I0J502D01*
G37*
G36*
G01X594598Y881100D02*
Y886900D01*
G02X595100Y887402I502J0D01*
G01X600900D01*
G02X601402Y886900I0J-502D01*
G01Y881100D01*
G02X600900Y880598I-502J0D01*
G01X595100D01*
G02X594598Y881100I0J502D01*
G37*
G36*
G01X709098Y949600D02*
Y955400D01*
G02X709600Y955902I502J0D01*
G01X715400D01*
G02X715902Y955400I0J-502D01*
G01Y949600D01*
G02X715400Y949098I-502J0D01*
G01X709600D01*
G02X709098Y949600I0J502D01*
G37*
G36*
G01X693998Y925000D02*
Y928749D01*
G02X691598Y932000I1002J3251D01*
G02X698402I3402J0D01*
G02X696002Y928749I-3402J0D01*
G01Y925415D01*
X699915Y921502D01*
X725085D01*
X729098Y925515D01*
Y930400D01*
G02X729600Y930902I502J0D01*
G01X735400D01*
G02X735902Y930400I0J-502D01*
G01Y924600D01*
G02X735400Y924098I-502J0D01*
G01X730515D01*
X726208Y919792D01*
G02X725500Y919498I-709J708D01*
G01X699500D01*
G02X698792Y919792I1J1002D01*
G01X694292Y924292D01*
G02X693998Y925000I708J709D01*
G37*
G36*
G01X653792Y939792D02*
X644093Y949491D01*
X643965Y949430D01*
G02X642500Y949098I-1466J3070D01*
G02X645902Y952500I0J3402D01*
G02X645507Y950909I-3402J0D01*
G01X654915Y941502D01*
X709500D01*
G02X710208Y941208I-1J-1002D01*
G01X720907Y930509D01*
X721035Y930570D01*
G02X722500Y930902I1466J-3070D01*
G02X719098Y927500I0J-3402D01*
G02X719493Y929091I3402J0D01*
G01X709085Y939498D01*
X654500D01*
G02X653792Y939792I1J1002D01*
G37*
G36*
G01X670792Y962208D02*
G02X671500Y962502I709J-708D01*
G01X716624D01*
G02X718000Y963202I1376J-1002D01*
G02Y959798I0J-1702D01*
G02X716624Y960498I0J1702D01*
G01X671915D01*
X665507Y954091D01*
G02X665902Y952500I-3007J-1591D01*
G02X662500Y955902I-3402J0D01*
G02X663965Y955570I-1J-3402D01*
G01X664093Y955509D01*
X670792Y962208D01*
G37*
G54D18*
X672000Y877000D03*
G54D20*
X752000Y871834D03*
G54D19*
X712500Y927500D03*
X752500Y952500D03*
X722500D03*
X608000Y884000D03*
X632500Y952500D03*
X622500Y909000D03*
%LPD*%
G75*
G54D10*
X598000Y884000D03*
X617500Y727500D03*
X622500Y919000D03*
Y952500D03*
X685000Y932000D03*
X712500Y952500D03*
X732500Y727500D03*
Y927500D03*
G54D11*
X617500Y717500D03*
X627500D03*
Y727500D03*
X608000Y884000D03*
X622500Y909000D03*
X632500Y952500D03*
X637500Y717500D03*
X647500D03*
X637500Y727500D03*
X647500D03*
X642500Y952500D03*
X652500D03*
X662500D03*
X695000Y932000D03*
X722500Y927500D03*
X712500D03*
X722500Y952500D03*
X732500Y717500D03*
X742500D03*
X752500D03*
X742500Y727500D03*
X752500D03*
X732500Y952500D03*
X742500D03*
X752500D03*
X762500Y717500D03*
Y727500D03*
G54D12*
X627500Y827500D03*
X637500Y751000D03*
X655000Y735000D03*
X655500Y804000D03*
X641500Y802500D03*
X645000Y822000D03*
X657500Y851500D03*
X671000Y746500D03*
X678000Y722500D03*
X670000Y789000D03*
X687475Y783475D03*
X676500Y818000D03*
X682000D03*
X676500Y812500D03*
X682000D03*
X665000Y818000D03*
X663000Y845500D03*
X718500Y747000D03*
X698400Y790400D03*
X709500Y810500D03*
X716500Y834000D03*
X718000Y961500D03*
X725000Y830000D03*
X730000Y822500D03*
X735500Y825000D03*
X742500Y814500D03*
G54D13*
X622500Y967500D03*
X632500D03*
X672000Y877000D03*
X742500Y967500D03*
X752500D03*
X732500D03*
G54D14*
G01X637500Y727500D02*
Y751000D01*
G01X722500Y927500D02*
X709500Y940500D01*
X654500D01*
X642500Y952500D01*
G01X742500D02*
X735000Y945000D01*
X660000D01*
X652500Y952500D01*
G01X665000Y818000D02*
Y843500D01*
X663000Y845500D01*
G01X718000Y961500D02*
X671500D01*
X662500Y952500D01*
G01X695000Y932000D02*
Y925000D01*
X699500Y920500D01*
X725500D01*
X732500Y927500D01*
G01Y952500D02*
Y967500D01*
G01X742500Y952500D02*
Y967500D01*
G54D15*
G01X632500Y952500D02*
Y967500D01*
G54D16*
G01X598000Y880398D02*
Y884000D01*
G01D02*
Y887602D01*
G01X594398Y884000D02*
X598000D01*
G01D02*
X601602D01*
G01X608000Y880398D02*
Y884000D01*
G01D02*
Y887602D01*
G01X604398Y884000D02*
X608000D01*
G01D02*
X611602D01*
G01X628898Y952500D02*
X632500D01*
G01X629048Y967500D02*
X632500D01*
G01Y948898D02*
Y952500D01*
G01D02*
X636102D01*
G01X632500Y967500D02*
X635952D01*
G01X687475Y782600D02*
Y783475D01*
G01D02*
Y785480D01*
G01X686600Y783475D02*
X687475D01*
G01D02*
X696359D01*
G01X718898Y952500D02*
X722500D01*
G01X748748Y727500D02*
X752500D01*
G01X722500Y948898D02*
Y952500D01*
G01D02*
Y956102D01*
G01Y952500D02*
X726102D01*
G01X752500Y723748D02*
Y727500D01*
G01D02*
Y731252D01*
G01Y727500D02*
X756252D01*
G54D17*
G01X590000Y697500D02*
Y972500D01*
X790000D01*
Y697500D01*
X590000D01*
G01X765707Y873083D02*
X765547Y873333D01*
X765360Y873458D01*
X765147Y873500D01*
X764880Y873417D01*
X764693Y873208D01*
X764640Y872958D01*
X764667Y872708D01*
X764773Y872500D01*
X765307Y872083D01*
X765547Y871792D01*
X765707Y871375D01*
X765760Y871000D01*
X764640D01*
G01X763000Y873500D02*
X763213Y873417D01*
X763373Y873208D01*
X763480Y872958D01*
X763560Y872625D01*
X763587Y872250D01*
X763560Y871875D01*
X763480Y871542D01*
X763373Y871292D01*
X763213Y871083D01*
X763000Y871000D01*
X762787Y871083D01*
X762627Y871292D01*
X762520Y871542D01*
X762440Y871875D01*
X762413Y872250D01*
X762440Y872625D01*
X762520Y872958D01*
X762627Y873208D01*
X762787Y873417D01*
X763000Y873500D01*
G01X761307Y873083D02*
X761147Y873333D01*
X760960Y873458D01*
X760747Y873500D01*
X760480Y873417D01*
X760293Y873208D01*
X760240Y872958D01*
X760267Y872708D01*
X760373Y872500D01*
X760907Y872083D01*
X761147Y871792D01*
X761307Y871375D01*
X761360Y871000D01*
X760240D01*
G01X758600Y873500D02*
X758813Y873417D01*
X758973Y873208D01*
X759080Y872958D01*
X759160Y872625D01*
X759187Y872250D01*
X759160Y871875D01*
X759080Y871542D01*
X758973Y871292D01*
X758813Y871083D01*
X758600Y871000D01*
X758387Y871083D01*
X758227Y871292D01*
X758120Y871542D01*
X758040Y871875D01*
X758013Y872250D01*
X758040Y872625D01*
X758120Y872958D01*
X758227Y873208D01*
X758387Y873417D01*
X758600Y873500D01*
G01X756747Y871833D02*
X756053D01*
G01X754200Y873500D02*
X754413Y873417D01*
X754573Y873208D01*
X754680Y872958D01*
X754760Y872625D01*
X754787Y872250D01*
X754760Y871875D01*
X754680Y871542D01*
X754573Y871292D01*
X754413Y871083D01*
X754200Y871000D01*
X753987Y871083D01*
X753827Y871292D01*
X753720Y871542D01*
X753640Y871875D01*
X753613Y872250D01*
X753640Y872625D01*
X753720Y872958D01*
X753827Y873208D01*
X753987Y873417D01*
X754200Y873500D01*
G01X752000D02*
X752213Y873417D01*
X752373Y873208D01*
X752480Y872958D01*
X752560Y872625D01*
X752587Y872250D01*
X752560Y871875D01*
X752480Y871542D01*
X752373Y871292D01*
X752213Y871083D01*
X752000Y871000D01*
X751787Y871083D01*
X751627Y871292D01*
X751520Y871542D01*
X751440Y871875D01*
X751413Y872250D01*
X751440Y872625D01*
X751520Y872958D01*
X751627Y873208D01*
X751787Y873417D01*
X752000Y873500D01*
G01X749800Y871000D02*
Y873500D01*
X750120Y873000D01*
G01Y871000D02*
X749480D01*
G01X744920Y873500D02*
Y871000D01*
G01Y871375D02*
X745027Y871167D01*
X745187Y871042D01*
X745373Y871000D01*
X745587Y871083D01*
X745747Y871292D01*
X745853Y871542D01*
X745880Y871833D01*
X745853Y872125D01*
X745747Y872375D01*
X745587Y872583D01*
X745373Y872667D01*
X745187Y872625D01*
X745053Y872542D01*
X744920Y872375D01*
G01X743627Y870375D02*
X743440Y870208D01*
X743280Y870167D01*
X743067Y870250D01*
X742907Y870458D01*
X742827Y870833D01*
Y872667D01*
G01Y873333D02*
X742880Y873375D01*
Y873458D01*
X742827Y873500D01*
X742773Y873458D01*
Y873375D01*
X742827Y873333D01*
G01X741427Y870375D02*
X741240Y870208D01*
X741080Y870167D01*
X740867Y870250D01*
X740707Y870458D01*
X740627Y870833D01*
Y872667D01*
G01Y873333D02*
X740680Y873375D01*
Y873458D01*
X740627Y873500D01*
X740573Y873458D01*
Y873375D01*
X740627Y873333D01*
G01X739467Y872667D02*
X739147Y871000D01*
X738800Y872667D01*
X738453Y871000D01*
X738133Y872667D01*
G01X697854Y839150D02*
X784355D01*
X788150Y835355D01*
Y705145D01*
X784855Y701850D01*
X596645D01*
X591850Y706645D01*
Y831355D01*
X593645Y833150D01*
X663648D01*
Y819544D01*
G03X666352I1352J-1544D01*
G01Y824944D01*
X668147Y823148D01*
X671147D01*
X673148Y821147D01*
Y814853D01*
X672647Y814352D01*
X662853D01*
X659353Y817852D01*
X648147D01*
X647148Y816853D01*
Y796647D01*
X663147Y780648D01*
X671853D01*
X678352Y787147D01*
Y807147D01*
X680353Y809148D01*
X683853D01*
X685852Y811147D01*
Y820853D01*
X684353Y822352D01*
X682353D01*
X682352Y822353D01*
Y828647D01*
X687853Y834148D01*
X692853D01*
X697854Y839150D01*
G01X636148Y749456D02*
G02X638852I1352J1544D01*
G01Y731000D01*
G02X636148I-1352J-3500D01*
G01Y749456D01*
G01X697198Y788737D02*
G02X699602I1202J1663D01*
G01Y773900D01*
G02X699250Y773050I-1202J0D01*
G01X673026Y746827D01*
G02X671327Y748526I-2026J-327D01*
G01X697198Y774398D01*
Y788737D01*
G01X708298Y808837D02*
G02X710702I1202J1663D01*
G01Y754000D01*
G02X710350Y753150I-1202J0D01*
G01X680026Y722827D01*
G02X678327Y724526I-2026J-327D01*
G01X708298Y754498D01*
Y808837D01*
G01X728798Y820837D02*
G02X731202I1202J1663D01*
G01Y743500D01*
G02X730850Y742650I-1202J0D01*
G01X696850Y708650D01*
G02X696000Y708298I-850J850D01*
G01X645500D01*
G02X644650Y708650I0J1202D01*
G01X639164Y714137D01*
G02X640863Y715836I-1664J3363D01*
G01X645998Y710702D01*
X695502D01*
X728798Y743998D01*
Y820837D01*
G01X625474Y827173D02*
G02X627173Y825474I2026J327D01*
G01X618702Y817002D01*
Y731252D01*
X620400D01*
G02X621252Y730400I0J-852D01*
G01Y724600D01*
G02X620400Y723748I-852J0D01*
G01X614600D01*
G02X613748Y724600I0J852D01*
G01Y730400D01*
G02X614600Y731252I852J0D01*
G01X616298D01*
Y817500D01*
G02X616650Y818350I1202J0D01*
G01X625474Y827173D01*
G01X723798Y828337D02*
G02X726202I1202J1663D01*
G01Y753500D01*
G02X725850Y752650I-1202J0D01*
G01X720526Y747327D01*
G02X718827Y749026I-2026J-327D01*
G01X723798Y753998D01*
Y828337D01*
G01X715298Y832337D02*
G02X717702I1202J1663D01*
G01Y752500D01*
G02X717350Y751650I-1202J0D01*
G01X682350Y716650D01*
G02X681500Y716298I-850J850D01*
G01X651054D01*
G02Y718702I-3554J1202D01*
G01X681002D01*
X715298Y752998D01*
Y832337D01*
G01X766252Y717500D02*
G02I-3752J0D01*
G01Y727500D02*
G02I-3752J0D01*
G01X756252Y717500D02*
G02I-3752J0D01*
G01Y727500D02*
G02I-3752J0D01*
G01X631252Y717500D02*
G02I-3752J0D01*
G01Y727500D02*
G02I-3752J0D01*
G01X621252Y717500D02*
G02I-3752J0D01*
G01X729600Y731252D02*
X735400D01*
G02X736252Y730400I0J-852D01*
G01Y724600D01*
G02X735400Y723748I-852J0D01*
G01X729600D01*
G02X728748Y724600I0J852D01*
G01Y730400D01*
G02X729600Y731252I852J0D01*
G01X640298Y800837D02*
G02X642702I1202J1663D01*
G01Y795498D01*
X648350Y789850D01*
G02X648702Y789000I-850J-850D01*
G01Y731054D01*
G02X646298I-1202J-3554D01*
G01Y788502D01*
X640650Y794150D01*
G02X640298Y795000I850J850D01*
G01Y800837D01*
G01X742827Y812474D02*
G02X744526Y814173I-327J2026D01*
G01X747350Y811350D01*
G02X747702Y810500I-850J-850D01*
G01Y721500D01*
G02X747350Y720650I-1202J0D01*
G01X745863Y719164D01*
G02X744164Y720863I-3363J-1664D01*
G01X745298Y721998D01*
Y725001D01*
G02Y729999I-2798J2499D01*
G01Y810002D01*
X742827Y812474D01*
G01X643798Y820337D02*
G02X646202I1202J1663D01*
G01Y796498D01*
X652350Y790350D01*
G02X652702Y789500I-850J-850D01*
G01Y738998D01*
X654673Y737026D01*
G02X652974Y735327I327J-2026D01*
G01X650650Y737650D01*
G02X650298Y738500I850J850D01*
G01Y789002D01*
X644150Y795150D01*
G02X643798Y796000I850J850D01*
G01Y820337D01*
G01X735827Y822974D02*
G02X737526Y824673I-327J2026D01*
G01X738350Y823850D01*
G02X738702Y823000I-850J-850D01*
G01Y722500D01*
G02X738350Y721650I-1202J0D01*
G01X735863Y719164D01*
G02X734164Y720863I-3363J-1664D01*
G01X736298Y722998D01*
Y822502D01*
X735827Y822974D01*
G01X591851Y820529D02*
X604472Y833150D01*
G01X591850Y809639D02*
X615361Y833150D01*
G01X591851Y798750D02*
X626251Y833150D01*
G01X618702Y814712D02*
X637140Y833150D01*
G01X591850Y787860D02*
X616298Y812308D01*
G01X618702Y803823D02*
X648029Y833150D01*
G01X591850Y776971D02*
X616298Y801419D01*
G01X646819Y821050D02*
X658919Y833150D01*
G01X618703Y792934D02*
X643798Y818029D01*
G01X591851Y766082D02*
X616298Y790529D01*
G01X654511Y817853D02*
X663648Y826990D01*
G01X646202Y809544D02*
X647148Y810490D01*
G01X641186Y804528D02*
X643798Y807140D01*
G01X618702Y782044D02*
X639472Y802814D01*
G01X591850Y755192D02*
X616298Y779640D01*
G01X666699Y819152D02*
X670695Y823148D01*
G01X662377Y814829D02*
X663848Y816301D01*
G01X646203Y798655D02*
X647148Y799600D01*
G01X642874Y795326D02*
X643798Y796250D01*
G01X618703Y771155D02*
X641174Y793626D01*
G01X591851Y744303D02*
X616298Y768750D01*
G01X682352Y823915D02*
X692585Y834148D01*
G01X650569Y792132D02*
X651116Y792679D01*
G01X648319Y789882D02*
X648868Y790431D01*
G01X618702Y760265D02*
X646298Y787861D01*
G01X591850Y733413D02*
X616298Y757861D01*
G01X685853Y816526D02*
X708477Y839150D01*
G01X652703Y783376D02*
X656561Y787234D01*
G01X648703Y779376D02*
X650298Y780971D01*
G01X618703Y749376D02*
X646298Y776971D01*
G01X591851Y722524D02*
X616298Y746971D01*
G01X716254Y836038D02*
X719366Y839150D01*
G01X678352Y798136D02*
X714462Y834246D01*
G01X652702Y772486D02*
X662005Y781789D01*
G01X648702Y768486D02*
X650298Y770082D01*
G01X618702Y738486D02*
X646298Y766082D01*
G01X591850Y711634D02*
X616298Y736082D01*
G01X717703Y826597D02*
X730256Y839150D01*
G01X678353Y787247D02*
X715298Y824192D01*
G01X652703Y761597D02*
X671754Y780648D01*
G01X648703Y757597D02*
X650298Y759192D01*
G01X638853Y747747D02*
X646298Y755192D01*
G01X621253Y730147D02*
X636148Y745042D01*
G01X594801Y703695D02*
X614854Y723748D01*
G01X726202Y824207D02*
X741145Y839150D01*
G01X717702Y815707D02*
X723798Y821803D01*
G01X710702Y808707D02*
X715298Y813303D01*
G01X652702Y750707D02*
X708298Y806303D01*
G01X648702Y746707D02*
X650298Y748303D01*
G01X638852Y736857D02*
X646298Y744303D01*
G01X630956Y728961D02*
X636148Y734153D01*
G01X620956Y718961D02*
X626039Y724044D01*
G01X603846Y701851D02*
X616039Y714044D01*
G01X737542Y824658D02*
X752034Y839150D01*
G01X731202Y818318D02*
X735842Y822958D01*
G01X726202Y813318D02*
X728798Y815914D01*
G01X717702Y804818D02*
X723798Y810914D01*
G01X710702Y797818D02*
X715298Y802414D01*
G01X699602Y786718D02*
X708298Y795414D01*
G01X652702Y739818D02*
X697198Y784314D01*
G01X648702Y735818D02*
X650594Y737709D01*
G01X641170Y728285D02*
X646298Y733413D01*
G01X631169Y718285D02*
X636715Y723830D01*
G01X614735Y701851D02*
X626715Y713831D01*
G01X738703Y814929D02*
X762924Y839150D01*
G01X731203Y807429D02*
X736298Y812524D01*
G01X726203Y802429D02*
X728798Y805024D01*
G01X717703Y793929D02*
X723798Y800024D01*
G01X710703Y786929D02*
X715298Y791524D01*
G01X699603Y775829D02*
X708298Y784524D01*
G01X651252Y727478D02*
X669231Y745458D01*
G01X641253Y717479D02*
X647522Y723748D01*
G01X625624Y701850D02*
X637521Y713747D01*
G01X746682Y812019D02*
X773813Y839150D01*
G01X738702Y804039D02*
X744981Y810318D01*
G01X731202Y796539D02*
X736298Y801635D01*
G01X726202Y791539D02*
X728798Y794135D01*
G01X717702Y783039D02*
X723798Y789135D01*
G01X710702Y776039D02*
X715298Y780635D01*
G01X653366Y718703D02*
X708298Y773635D01*
G01X645682Y711019D02*
X648567Y713903D01*
G01X636514Y701851D02*
X643981Y709318D01*
G01X747703Y802150D02*
X784529Y838976D01*
G01X738703Y793150D02*
X745298Y799745D01*
G01X731203Y785650D02*
X736298Y790745D01*
G01X726203Y780650D02*
X728798Y783245D01*
G01X717703Y772150D02*
X723798Y778245D01*
G01X710703Y765150D02*
X715298Y769745D01*
G01X664255Y718702D02*
X708298Y762745D01*
G01X656255Y710702D02*
X661851Y716298D01*
G01X647403Y701850D02*
X653851Y708298D01*
G01X747702Y791260D02*
X788150Y831708D01*
G01X738702Y782260D02*
X745298Y788856D01*
G01X731202Y774760D02*
X736298Y779856D01*
G01X726202Y769760D02*
X728798Y772356D01*
G01X717702Y761260D02*
X723798Y767356D01*
G01X710702Y754260D02*
X715298Y758856D01*
G01X675145Y718703D02*
X677098Y720656D01*
G01X667145Y710703D02*
X672740Y716298D01*
G01X658293Y701851D02*
X664740Y708298D01*
G01X747703Y780371D02*
X788150Y820818D01*
G01X738703Y771371D02*
X745298Y777966D01*
G01X731203Y763871D02*
X736298Y768966D01*
G01X726203Y758871D02*
X728798Y761466D01*
G01X678034Y710702D02*
X723798Y756466D01*
G01X669182Y701850D02*
X675630Y708298D01*
G01X747702Y769481D02*
X788150Y809929D01*
G01X738702Y760481D02*
X745298Y767077D01*
G01X731202Y752981D02*
X736298Y758077D01*
G01X688924Y710703D02*
X728798Y750577D01*
G01X680072Y701851D02*
X686519Y708298D01*
G01X747703Y758592D02*
X788150Y799039D01*
G01X738703Y749592D02*
X745298Y756187D01*
G01X690961Y701850D02*
X736298Y747187D01*
G01X747702Y747702D02*
X788150Y788150D01*
G01X738702Y738702D02*
X745298Y745298D01*
G01X731252Y731252D02*
X736298Y736298D01*
G01X701850Y701850D02*
X728748Y728748D01*
G01X747702Y736813D02*
X788150Y777261D01*
G01X742122Y731233D02*
X745298Y734409D01*
G01X738702Y727813D02*
X738767Y727878D01*
G01X736252Y725363D02*
X736298Y725409D01*
G01X732123Y721234D02*
X734637Y723748D01*
G01X712740Y701851D02*
X728766Y717877D01*
G01X752998Y731219D02*
X788150Y766371D01*
G01X747703Y725924D02*
X748781Y727002D01*
G01X742998Y721219D02*
X745298Y723519D01*
G01X723629Y701850D02*
X738781Y717002D01*
G01X763718Y731050D02*
X788150Y755482D01*
G01X753718Y721050D02*
X758950Y726282D01*
G01X734519Y701851D02*
X748950Y716282D01*
G01X764333Y720775D02*
X788150Y744592D01*
G01X745408Y701850D02*
X759225Y715667D01*
G01X756298Y701851D02*
X788150Y733703D01*
G01X767187Y701850D02*
X788150Y722813D01*
G01X778077Y701851D02*
X788150Y711924D01*
G01X604883Y701850D02*
X591850Y714883D01*
G01X615772Y701851D02*
X591851Y725772D01*
G01X626662Y701850D02*
X591850Y736662D01*
G01X613748Y725654D02*
X591851Y747551D01*
G01X618219Y721183D02*
X615654Y723748D01*
G01X637551Y701851D02*
X621183Y718219D01*
G01X616298Y733993D02*
X591850Y758441D01*
G01X619039Y731252D02*
X618702Y731589D01*
G01X623922Y726369D02*
X621252Y729039D01*
G01X629946Y720346D02*
X626369Y723922D01*
G01X633922Y716369D02*
X630345Y719947D01*
G01X648441Y701850D02*
X636369Y713922D01*
G01X616298Y744883D02*
X591851Y769330D01*
G01X633748Y727432D02*
X618702Y742478D01*
G01X643748Y717432D02*
X637432Y723748D01*
G01X650478Y710703D02*
X647432Y713748D01*
G01X659330Y701851D02*
X652883Y708298D01*
G01X616298Y755772D02*
X591851Y780219D01*
G01X636148Y735922D02*
X618703Y753367D01*
G01X643823Y728247D02*
X638853Y733217D01*
G01X653367Y718703D02*
X648247Y723823D01*
G01X661367Y710703D02*
X655772Y716298D01*
G01X670219Y701851D02*
X663772Y708298D01*
G01X616298Y766661D02*
X591850Y791109D01*
G01X636148Y746811D02*
X618702Y764257D01*
G01X646298Y736661D02*
X638852Y744107D01*
G01X664257Y718702D02*
X648702Y734257D01*
G01X672257Y710702D02*
X666661Y716298D01*
G01X681109Y701850D02*
X674661Y708298D01*
G01X616298Y777551D02*
X591851Y801998D01*
G01X646298Y747551D02*
X618703Y775146D01*
G01X650298Y743551D02*
X648703Y745146D01*
G01X675146Y718703D02*
X652703Y741146D01*
G01X683146Y710703D02*
X677551Y716298D01*
G01X691998Y701851D02*
X685551Y708298D01*
G01X616298Y788440D02*
X591850Y812888D01*
G01X646298Y758440D02*
X618702Y786036D01*
G01X650298Y754440D02*
X648702Y756036D01*
G01X679269Y725469D02*
X652702Y752036D01*
G01X683519Y721219D02*
X680969Y723769D01*
G01X694036Y710702D02*
X685219Y719519D01*
G01X702888Y701850D02*
X696379Y708359D01*
G01X616298Y799330D02*
X591851Y823777D01*
G01X646298Y769330D02*
X618703Y796925D01*
G01X650298Y765330D02*
X648703Y766925D01*
G01X668955Y746673D02*
X652703Y762925D01*
G01X684714Y730914D02*
X671173Y744455D01*
G01X688964Y726664D02*
X686414Y729214D01*
G01X700214Y715414D02*
X690664Y724964D01*
G01X713777Y701851D02*
X701914Y713714D01*
G01X616298Y810219D02*
X593506Y833011D01*
G01X646298Y780219D02*
X618702Y807815D01*
G01X650298Y776219D02*
X648702Y777815D01*
G01X674659Y751859D02*
X652703Y773815D01*
G01X690158Y736359D02*
X676359Y750159D01*
G01X694408Y732109D02*
X691859Y734658D01*
G01X705658Y720859D02*
X696109Y730408D01*
G01X724667Y701850D02*
X707359Y719158D01*
G01X617853Y819554D02*
X604257Y833150D01*
G01X640298Y797109D02*
X619554Y817853D01*
G01X650298Y787109D02*
X648703Y788704D01*
G01X680103Y757304D02*
X652703Y784704D01*
G01X695603Y741804D02*
X681803Y755603D01*
G01X699853Y737554D02*
X697304Y740103D01*
G01X711103Y726304D02*
X701554Y735853D01*
G01X735556Y701851D02*
X712804Y724603D01*
G01X623298Y824998D02*
X615146Y833150D01*
G01X643798Y804498D02*
X624998Y823298D01*
G01X647148Y801148D02*
X646202Y802094D01*
G01X685548Y762748D02*
X667648Y780648D01*
G01X701048Y747248D02*
X687248Y761048D01*
G01X705298Y742998D02*
X702748Y745548D01*
G01X716548Y731748D02*
X706998Y741298D01*
G01X729135Y719161D02*
X718248Y730048D01*
G01X746446Y701850D02*
X734161Y714135D01*
G01X643798Y815388D02*
X626036Y833150D01*
G01X647148Y812038D02*
X646203Y812983D01*
G01X690993Y768193D02*
X675196Y783990D01*
G01X706493Y752693D02*
X692693Y766493D01*
G01X710743Y748443D02*
X708193Y750993D01*
G01X721993Y737193D02*
X712443Y746743D01*
G01X728748Y730437D02*
X723693Y735492D01*
G01X736243Y722943D02*
X735437Y723748D01*
G01X739471Y719715D02*
X737943Y721243D01*
G01X757335Y701851D02*
X744715Y714471D01*
G01X652222Y817853D02*
X636925Y833150D01*
G01X696437Y773638D02*
X678353Y791722D01*
G01X708298Y761777D02*
X698138Y771937D01*
G01X715298Y754777D02*
X710703Y759372D01*
G01X719937Y750138D02*
X717696Y752379D01*
G01X727437Y742638D02*
X721638Y748437D01*
G01X736298Y733777D02*
X729138Y740937D01*
G01X739885Y730190D02*
X738703Y731372D01*
G01X745298Y724777D02*
X745190Y724885D01*
G01X749884Y720191D02*
X747703Y722372D01*
G01X768224Y701851D02*
X755191Y714884D01*
G01X662947Y818017D02*
X647814Y833150D01*
G01X666612Y814352D02*
X665017Y815947D01*
G01X697198Y783766D02*
X678352Y802612D01*
G01X708298Y772666D02*
X699602Y781362D01*
G01X715298Y765666D02*
X710702Y770262D01*
G01X723798Y757166D02*
X717702Y763262D01*
G01X728798Y752166D02*
X726202Y754762D01*
G01X736298Y744666D02*
X731202Y749762D01*
G01X745298Y735666D02*
X738702Y742262D01*
G01X750373Y730591D02*
X747702Y733262D01*
G01X760373Y720591D02*
X755591Y725373D01*
G01X779114Y701850D02*
X765591Y715373D01*
G01X663648Y828206D02*
X658704Y833150D01*
G01X673148Y818706D02*
X668706Y823148D01*
G01X708298Y783556D02*
X682706Y809148D01*
G01X715298Y776556D02*
X710703Y781151D01*
G01X723798Y768056D02*
X717703Y774151D01*
G01X728798Y763056D02*
X726203Y765651D01*
G01X736298Y755556D02*
X731203Y760651D01*
G01X745298Y746556D02*
X738703Y753151D01*
G01X760941Y730913D02*
X747703Y744151D01*
G01X787429Y704425D02*
X765913Y725941D01*
G01X708298Y794445D02*
X685852Y816891D01*
G01X715298Y787445D02*
X710702Y792041D01*
G01X723798Y778945D02*
X717702Y785041D01*
G01X728798Y773945D02*
X726202Y776541D01*
G01X736298Y766445D02*
X731202Y771541D01*
G01X745298Y757445D02*
X738702Y764041D01*
G01X788150Y714593D02*
X747702Y755041D01*
G01X708298Y805335D02*
X683669Y829964D01*
G01X715298Y798335D02*
X710703Y802930D01*
G01X723798Y789835D02*
X717703Y795930D01*
G01X728798Y784835D02*
X726203Y787430D01*
G01X736298Y777335D02*
X731203Y782430D01*
G01X745298Y768335D02*
X738703Y774930D01*
G01X788150Y725483D02*
X747703Y765930D01*
G01X715298Y809224D02*
X690374Y834148D01*
G01X723798Y800724D02*
X717702Y806820D01*
G01X728798Y795724D02*
X726202Y798320D01*
G01X736298Y788224D02*
X731202Y793320D01*
G01X745298Y779224D02*
X738702Y785820D01*
G01X788150Y736372D02*
X747702Y776820D01*
G01X715298Y820114D02*
X697058Y838353D01*
G01X723798Y811614D02*
X717703Y817709D01*
G01X728798Y806614D02*
X726203Y809209D01*
G01X736298Y799114D02*
X731203Y804209D01*
G01X745298Y790114D02*
X738703Y796709D01*
G01X788150Y747262D02*
X747703Y787709D01*
G01X715298Y831003D02*
X707151Y839150D01*
G01X723798Y822503D02*
X717702Y828599D01*
G01X728798Y817503D02*
X726202Y820099D01*
G01X736298Y810003D02*
X731202Y815099D01*
G01X745298Y801003D02*
X738702Y807599D01*
G01X788150Y758151D02*
X747702Y798599D01*
G01X725144Y832047D02*
X718041Y839150D01*
G01X736298Y820893D02*
X727047Y830144D01*
G01X741147Y816044D02*
X738703Y818488D01*
G01X788150Y769041D02*
X747703Y809488D01*
G01X788150Y779930D02*
X728930Y839150D01*
G01X788149Y790820D02*
X739819Y839150D01*
G01X788150Y801709D02*
X750709Y839150D01*
G01X788150Y812598D02*
X761598Y839150D01*
G01X788150Y823488D02*
X772488Y839150D01*
G01X788149Y834378D02*
X783377Y839150D01*
G01X617500Y727500D02*
Y817500D01*
X627500Y827500D01*
G01X730000Y822500D02*
Y743500D01*
X696000Y709500D01*
X645500D01*
X637500Y717500D01*
G01X716500Y834000D02*
Y752500D01*
X681500Y717500D01*
X647500D01*
G01Y727500D02*
Y789000D01*
X641500Y795000D01*
Y802500D01*
G01X655000Y735000D02*
X651500Y738500D01*
Y789500D01*
X645000Y796000D01*
Y822000D01*
G01X671000Y746500D02*
X698400Y773900D01*
Y790400D01*
G01X709500Y810500D02*
Y754000D01*
X678000Y722500D01*
G01X725000Y830000D02*
Y753500D01*
X718500Y747000D01*
G01X735500Y825000D02*
X737500Y823000D01*
Y722500D01*
X732500Y717500D01*
G01X742500Y814500D02*
X746500Y810500D01*
Y721500D01*
X742500Y717500D01*
M02*
