G04 ================== begin FILE IDENTIFICATION RECORD ==================*
G04 Layout Name:  touchcontroller.brd*
G04 Film Name:    DJJW_SSTOP*
G04 File Format:  Gerber RS274X*
G04 File Origin:  Cadence Allegro -unreleased*
G04 Origin Date:  Mon Feb 24 15:45:29 2020*
G04 *
G04 Layer:  BOARD GEOMETRY/SILKSCREEN_TOP*
G04 Layer:  REF DES/SILKSCREEN_BOTTOM*
G04 Layer:  PACKAGE GEOMETRY/SILKSCREEN_BOTTOM*
G04 Layer:  PACKAGE GEOMETRY/SILKSCREEN_TOP*
G04 Layer:  REF DES/SILKSCREEN_TOP*
G04 Layer:  BOARD GEOMETRY/DESIGN_OUTLINE*
G04 Layer:  BOARD GEOMETRY/CUTOUT*
G04 *
G04 Offset:    (0.00 0.00)*
G04 Mirror:    No*
G04 Mode:      Positive*
G04 Rotation:  0*
G04 FullContactRelief:  No*
G04 UndefLineWidth:     7.00*
G04 ================== end FILE IDENTIFICATION RECORD ====================*
%FSLAX25Y25*MOIN*%
%IR0*IPPOS*OFA0.00000B0.00000*MIA0B0*SFA1.00000B1.00000*%
%ADD10C,.01575*%
%ADD11C,.005*%
%ADD12C,.007*%
%ADD13C,.006*%
%ADD14C,.008*%
%ADD15C,.00591*%
%ADD16C,.00787*%
G75*
%LPD*%
G75*
G36*
G01X621172Y850680D02*
X628841D01*
X628871Y850710D01*
Y850679D01*
X625083Y846891D01*
X624961D01*
X621172Y850680D01*
G37*
G36*
G01X664572Y896780D02*
X672241D01*
X672271Y896810D01*
Y896779D01*
X668483Y892991D01*
X668361D01*
X664572Y896780D01*
G37*
G54D10*
G01X668531Y820624D02*
G03I-788J0D01*
G54D11*
G01X621200Y846700D02*
X628900D01*
G01X650610Y865689D02*
Y889311D01*
X664390D01*
Y865689D01*
X650610D01*
G01X664600Y892800D02*
X672300D01*
G54D12*
G01X590000Y697500D02*
Y972500D01*
X790000D01*
Y697500D01*
X590000D01*
G01X598633Y872000D02*
X598950Y871500D01*
X599330Y871167D01*
X599773Y871000D01*
X600280Y871167D01*
X600660Y871500D01*
X601040Y872000D01*
X601167Y872667D01*
Y876000D01*
G01X603797Y873083D02*
X604240Y873667D01*
X604620Y874000D01*
X605127Y874167D01*
X605570Y874000D01*
X605887Y873667D01*
X606140Y873167D01*
X606203Y872583D01*
X606140Y872083D01*
X605887Y871583D01*
X605507Y871167D01*
X605063Y871000D01*
X604557Y871167D01*
X604113Y871667D01*
X603860Y872417D01*
X603797Y873250D01*
X603923Y874333D01*
X604113Y874917D01*
X604430Y875500D01*
X604873Y875917D01*
X605317Y876000D01*
X605760Y875833D01*
X606077Y875417D01*
G01X596900Y892500D02*
Y897500D01*
X596140Y896500D01*
G01Y892500D02*
X597660D01*
G01X597633Y951000D02*
X597950Y950500D01*
X598330Y950167D01*
X598773Y950000D01*
X599280Y950167D01*
X599660Y950500D01*
X600040Y951000D01*
X600167Y951667D01*
Y955000D01*
G01X602797Y954167D02*
X603177Y954667D01*
X603620Y954917D01*
X604127Y955000D01*
X604760Y954833D01*
X605203Y954417D01*
X605330Y953917D01*
X605267Y953417D01*
X605013Y953000D01*
X603747Y952167D01*
X603177Y951583D01*
X602797Y950750D01*
X602670Y950000D01*
X605330D01*
G01X613133Y739000D02*
X613450Y739500D01*
X613830Y739833D01*
X614273Y740000D01*
X614780Y739833D01*
X615160Y739500D01*
X615540Y739000D01*
X615667Y738333D01*
Y735000D01*
G01X618107Y739250D02*
X618487Y739667D01*
X618930Y739917D01*
X619500Y740000D01*
X620070Y739833D01*
X620513Y739500D01*
X620830Y738917D01*
X620893Y738250D01*
X620767Y737583D01*
X620450Y737167D01*
X620007Y736833D01*
X619563Y736750D01*
X619120Y736833D01*
X618550Y737167D01*
X618740Y735000D01*
X620450D01*
G01X623133Y825000D02*
Y830000D01*
X624717D01*
X625223Y829750D01*
X625540Y829417D01*
X625667Y828750D01*
X625540Y828083D01*
X625160Y827667D01*
X624717Y827417D01*
X623133D01*
G01X624717D02*
X625667Y825000D01*
G01X629500D02*
Y830000D01*
X628740Y829000D01*
G01Y825000D02*
X630260D01*
G01X635360D02*
Y830000D01*
X633017Y826417D01*
X636183D01*
G01X608133Y918500D02*
X608450Y918000D01*
X608830Y917667D01*
X609273Y917500D01*
X609780Y917667D01*
X610160Y918000D01*
X610540Y918500D01*
X610667Y919167D01*
Y922500D01*
G01X614500Y917500D02*
Y922500D01*
X613740Y921500D01*
G01Y917500D02*
X615260D01*
G01X619440Y928490D02*
X624440D01*
X623440Y929250D01*
G01X619440D02*
Y927730D01*
G01X613010Y949440D02*
Y954440D01*
X612250Y953440D01*
G01Y949440D02*
X613770D01*
G01X612293Y939583D02*
X611913Y939833D01*
X611470Y940000D01*
X610963D01*
X610393Y939750D01*
X609950Y939333D01*
X609633Y938833D01*
X609380Y938000D01*
X609317Y937250D01*
X609443Y936500D01*
X609633Y936000D01*
X610013Y935500D01*
X610457Y935167D01*
X610900Y935000D01*
X611343D01*
X611787Y935167D01*
X612167Y935417D01*
X612483Y935750D01*
G01X616000Y935000D02*
Y940000D01*
X615240Y939000D01*
G01Y935000D02*
X616760D01*
G01X606900Y970000D02*
Y965000D01*
G01X605443Y970000D02*
X608357D01*
G01X610733Y965000D02*
Y970000D01*
X612253D01*
X612760Y969750D01*
X613140Y969167D01*
X613267Y968500D01*
X613140Y967833D01*
X612823Y967333D01*
X612253Y967083D01*
X610733D01*
G01X617100Y965000D02*
Y970000D01*
X616340Y969000D01*
G01Y965000D02*
X617860D01*
G01X640793Y812083D02*
X640413Y812333D01*
X639970Y812500D01*
X639463D01*
X638893Y812250D01*
X638450Y811833D01*
X638133Y811333D01*
X637880Y810500D01*
X637817Y809750D01*
X637943Y809000D01*
X638133Y808500D01*
X638513Y808000D01*
X638957Y807667D01*
X639400Y807500D01*
X639843D01*
X640287Y807667D01*
X640667Y807917D01*
X640983Y808250D01*
G01X643297Y811667D02*
X643677Y812167D01*
X644120Y812417D01*
X644627Y812500D01*
X645260Y812333D01*
X645703Y811917D01*
X645830Y811417D01*
X645767Y810917D01*
X645513Y810500D01*
X644247Y809667D01*
X643677Y809083D01*
X643297Y808250D01*
X643170Y807500D01*
X645830D01*
G01X653293Y797083D02*
X652913Y797333D01*
X652470Y797500D01*
X651963D01*
X651393Y797250D01*
X650950Y796833D01*
X650633Y796333D01*
X650380Y795500D01*
X650317Y794750D01*
X650443Y794000D01*
X650633Y793500D01*
X651013Y793000D01*
X651457Y792667D01*
X651900Y792500D01*
X652343D01*
X652787Y792667D01*
X653167Y792917D01*
X653483Y793250D01*
G01X655607Y793500D02*
X655987Y792917D01*
X656493Y792583D01*
X657063Y792500D01*
X657570Y792583D01*
X658077Y793000D01*
X658393Y793500D01*
X658457Y794000D01*
X658330Y794583D01*
X657887Y795000D01*
X657443Y795167D01*
X656873D01*
G01X657443D02*
X657823Y795417D01*
X658140Y795833D01*
X658267Y796333D01*
X658140Y796833D01*
X657823Y797250D01*
X657253Y797500D01*
X656683Y797417D01*
X656113Y797083D01*
G01X635633Y817500D02*
Y822500D01*
X637217D01*
X637723Y822250D01*
X638040Y821917D01*
X638167Y821250D01*
X638040Y820583D01*
X637660Y820167D01*
X637217Y819917D01*
X635633D01*
G01X637217D02*
X638167Y817500D01*
G01X642000D02*
Y822500D01*
X641240Y821500D01*
G01Y817500D02*
X642760D01*
G01X646973D02*
X647100Y818583D01*
X647290Y819500D01*
X647543Y820333D01*
X647860Y821250D01*
X648367Y822500D01*
X645833D01*
G01X650633Y835000D02*
Y840000D01*
X652217D01*
X652723Y839750D01*
X653040Y839417D01*
X653167Y838750D01*
X653040Y838083D01*
X652660Y837667D01*
X652217Y837417D01*
X650633D01*
G01X652217D02*
X653167Y835000D01*
G01X657000D02*
Y840000D01*
X656240Y839000D01*
G01Y835000D02*
X657760D01*
G01X660897Y839167D02*
X661277Y839667D01*
X661720Y839917D01*
X662227Y840000D01*
X662860Y839833D01*
X663303Y839417D01*
X663430Y838917D01*
X663367Y838417D01*
X663113Y838000D01*
X661847Y837167D01*
X661277Y836583D01*
X660897Y835750D01*
X660770Y835000D01*
X663430D01*
G01X640507Y847500D02*
Y852500D01*
X641773D01*
X642280Y852250D01*
X642660Y851917D01*
X642977Y851417D01*
X643230Y850833D01*
X643293Y850000D01*
X643230Y849167D01*
X642977Y848583D01*
X642660Y848083D01*
X642280Y847750D01*
X641773Y847500D01*
X640507D01*
G01X645797Y851667D02*
X646177Y852167D01*
X646620Y852417D01*
X647127Y852500D01*
X647760Y852333D01*
X648203Y851917D01*
X648330Y851417D01*
X648267Y850917D01*
X648013Y850500D01*
X646747Y849667D01*
X646177Y849083D01*
X645797Y848250D01*
X645670Y847500D01*
X648330D01*
G01X633570Y885667D02*
X634077Y885250D01*
X634647Y885000D01*
X635153D01*
X635660Y885250D01*
X636040Y885667D01*
X636230Y886250D01*
X636103Y886833D01*
X635787Y887333D01*
X635217Y887667D01*
X634457Y887833D01*
X634013Y888167D01*
X633823Y888750D01*
X633950Y889333D01*
X634267Y889750D01*
X634710Y890000D01*
X635153D01*
X635597Y889833D01*
X635977Y889417D01*
G01X638100Y890000D02*
X638987Y885000D01*
X640000Y890000D01*
X641013Y885000D01*
X641900Y890000D01*
G01X643897Y889167D02*
X644277Y889667D01*
X644720Y889917D01*
X645227Y890000D01*
X645860Y889833D01*
X646303Y889417D01*
X646430Y888917D01*
X646367Y888417D01*
X646113Y888000D01*
X644847Y887167D01*
X644277Y886583D01*
X643897Y885750D01*
X643770Y885000D01*
X646430D01*
G01X631633Y873000D02*
Y878000D01*
X633217D01*
X633723Y877750D01*
X634040Y877417D01*
X634167Y876750D01*
X634040Y876083D01*
X633660Y875667D01*
X633217Y875417D01*
X631633D01*
G01X633217D02*
X634167Y873000D01*
G01X636923Y873583D02*
X637367Y873167D01*
X637873Y873000D01*
X638380Y873167D01*
X638823Y873667D01*
X639140Y874417D01*
X639267Y875167D01*
Y876083D01*
X639140Y876833D01*
X638823Y877500D01*
X638443Y877833D01*
X638000Y878000D01*
X637493Y877833D01*
X637113Y877500D01*
X636860Y877000D01*
X636733Y876333D01*
X636860Y875750D01*
X637177Y875167D01*
X637557Y874833D01*
X638000Y874750D01*
X638507Y874917D01*
X638887Y875333D01*
X639267Y876083D01*
G01X632633Y925000D02*
Y930000D01*
X634217D01*
X634723Y929750D01*
X635040Y929417D01*
X635167Y928750D01*
X635040Y928083D01*
X634660Y927667D01*
X634217Y927417D01*
X632633D01*
G01X634217D02*
X635167Y925000D01*
G01X639000D02*
Y930000D01*
X638240Y929000D01*
G01Y925000D02*
X639760D01*
G01X644633Y910000D02*
Y915000D01*
X646217D01*
X646723Y914750D01*
X647040Y914417D01*
X647167Y913750D01*
X647040Y913083D01*
X646660Y912667D01*
X646217Y912417D01*
X644633D01*
G01X646217D02*
X647167Y910000D01*
G01X649797Y914167D02*
X650177Y914667D01*
X650620Y914917D01*
X651127Y915000D01*
X651760Y914833D01*
X652203Y914417D01*
X652330Y913917D01*
X652267Y913417D01*
X652013Y913000D01*
X650747Y912167D01*
X650177Y911583D01*
X649797Y910750D01*
X649670Y910000D01*
X652330D01*
G01X648133Y940000D02*
Y945000D01*
X649717D01*
X650223Y944750D01*
X650540Y944417D01*
X650667Y943750D01*
X650540Y943083D01*
X650160Y942667D01*
X649717Y942417D01*
X648133D01*
G01X649717D02*
X650667Y940000D01*
G01X653107Y941000D02*
X653487Y940417D01*
X653993Y940083D01*
X654563Y940000D01*
X655070Y940083D01*
X655577Y940500D01*
X655893Y941000D01*
X655957Y941500D01*
X655830Y942083D01*
X655387Y942500D01*
X654943Y942667D01*
X654373D01*
G01X654943D02*
X655323Y942917D01*
X655640Y943333D01*
X655767Y943833D01*
X655640Y944333D01*
X655323Y944750D01*
X654753Y945000D01*
X654183Y944917D01*
X653613Y944583D01*
G01X637900Y970000D02*
Y965000D01*
G01X636443Y970000D02*
X639357D01*
G01X641733Y965000D02*
Y970000D01*
X643253D01*
X643760Y969750D01*
X644140Y969167D01*
X644267Y968500D01*
X644140Y967833D01*
X643823Y967333D01*
X643253Y967083D01*
X641733D01*
G01X646897D02*
X647340Y967667D01*
X647720Y968000D01*
X648227Y968167D01*
X648670Y968000D01*
X648987Y967667D01*
X649240Y967167D01*
X649303Y966583D01*
X649240Y966083D01*
X648987Y965583D01*
X648607Y965167D01*
X648163Y965000D01*
X647657Y965167D01*
X647213Y965667D01*
X646960Y966417D01*
X646897Y967250D01*
X647023Y968333D01*
X647213Y968917D01*
X647530Y969500D01*
X647973Y969917D01*
X648417Y970000D01*
X648860Y969833D01*
X649177Y969417D01*
G01X663293Y782083D02*
X662913Y782333D01*
X662470Y782500D01*
X661963D01*
X661393Y782250D01*
X660950Y781833D01*
X660633Y781333D01*
X660380Y780500D01*
X660317Y779750D01*
X660443Y779000D01*
X660633Y778500D01*
X661013Y778000D01*
X661457Y777667D01*
X661900Y777500D01*
X662343D01*
X662787Y777667D01*
X663167Y777917D01*
X663483Y778250D01*
G01X667760Y777500D02*
Y782500D01*
X665417Y778917D01*
X668583D01*
G01X668293Y774583D02*
X667913Y774833D01*
X667470Y775000D01*
X666963D01*
X666393Y774750D01*
X665950Y774333D01*
X665633Y773833D01*
X665380Y773000D01*
X665317Y772250D01*
X665443Y771500D01*
X665633Y771000D01*
X666013Y770500D01*
X666457Y770167D01*
X666900Y770000D01*
X667343D01*
X667787Y770167D01*
X668167Y770417D01*
X668483Y770750D01*
G01X670607D02*
X670987Y770333D01*
X671430Y770083D01*
X672000Y770000D01*
X672570Y770167D01*
X673013Y770500D01*
X673330Y771083D01*
X673393Y771750D01*
X673267Y772417D01*
X672950Y772833D01*
X672507Y773167D01*
X672063Y773250D01*
X671620Y773167D01*
X671050Y772833D01*
X671240Y775000D01*
X672950D01*
G01X675633Y767000D02*
Y772000D01*
X677217D01*
X677723Y771750D01*
X678040Y771417D01*
X678167Y770750D01*
X678040Y770083D01*
X677660Y769667D01*
X677217Y769417D01*
X675633D01*
G01X677217D02*
X678167Y767000D01*
G01X680797Y771167D02*
X681177Y771667D01*
X681620Y771917D01*
X682127Y772000D01*
X682760Y771833D01*
X683203Y771417D01*
X683330Y770917D01*
X683267Y770417D01*
X683013Y770000D01*
X681747Y769167D01*
X681177Y768583D01*
X680797Y767750D01*
X680670Y767000D01*
X683330D01*
G01X687100D02*
Y772000D01*
X686340Y771000D01*
G01Y767000D02*
X687860D01*
G01X684633Y781000D02*
Y786000D01*
X686217D01*
X686723Y785750D01*
X687040Y785417D01*
X687167Y784750D01*
X687040Y784083D01*
X686660Y783667D01*
X686217Y783417D01*
X684633D01*
G01X686217D02*
X687167Y781000D01*
G01X689797Y785167D02*
X690177Y785667D01*
X690620Y785917D01*
X691127Y786000D01*
X691760Y785833D01*
X692203Y785417D01*
X692330Y784917D01*
X692267Y784417D01*
X692013Y784000D01*
X690747Y783167D01*
X690177Y782583D01*
X689797Y781750D01*
X689670Y781000D01*
X692330D01*
G01X696860D02*
Y786000D01*
X694517Y782417D01*
X697683D01*
G01X676057Y833000D02*
Y829417D01*
X676310Y828667D01*
X676817Y828167D01*
X677450Y828000D01*
X678083Y828167D01*
X678590Y828667D01*
X678843Y829417D01*
Y833000D01*
G01X682550Y828000D02*
Y833000D01*
X681790Y832000D01*
G01Y828000D02*
X683310D01*
G01X686633Y847000D02*
Y852000D01*
X688217D01*
X688723Y851750D01*
X689040Y851417D01*
X689167Y850750D01*
X689040Y850083D01*
X688660Y849667D01*
X688217Y849417D01*
X686633D01*
G01X688217D02*
X689167Y847000D01*
G01X693000D02*
X693443Y847083D01*
X693950Y847333D01*
X694267Y847750D01*
X694393Y848333D01*
X694267Y848917D01*
X693887Y849417D01*
X693317Y849667D01*
X692683D01*
X692303Y849833D01*
X691987Y850250D01*
X691860Y850833D01*
X692050Y851417D01*
X692493Y851833D01*
X693000Y852000D01*
X693507Y851833D01*
X693950Y851417D01*
X694140Y850833D01*
X694013Y850250D01*
X693697Y849833D01*
X693317Y849667D01*
X692683D01*
X692113Y849417D01*
X691733Y848917D01*
X691607Y848333D01*
X691733Y847750D01*
X692050Y847333D01*
X692557Y847083D01*
X693000Y847000D01*
G01X676633D02*
Y852000D01*
X678217D01*
X678723Y851750D01*
X679040Y851417D01*
X679167Y850750D01*
X679040Y850083D01*
X678660Y849667D01*
X678217Y849417D01*
X676633D01*
G01X678217D02*
X679167Y847000D01*
G01X682873D02*
X683000Y848083D01*
X683190Y849000D01*
X683443Y849833D01*
X683760Y850750D01*
X684267Y852000D01*
X681733D01*
G01X666633Y847000D02*
Y852000D01*
X668217D01*
X668723Y851750D01*
X669040Y851417D01*
X669167Y850750D01*
X669040Y850083D01*
X668660Y849667D01*
X668217Y849417D01*
X666633D01*
G01X668217D02*
X669167Y847000D01*
G01X671797Y849083D02*
X672240Y849667D01*
X672620Y850000D01*
X673127Y850167D01*
X673570Y850000D01*
X673887Y849667D01*
X674140Y849167D01*
X674203Y848583D01*
X674140Y848083D01*
X673887Y847583D01*
X673507Y847167D01*
X673063Y847000D01*
X672557Y847167D01*
X672113Y847667D01*
X671860Y848417D01*
X671797Y849250D01*
X671923Y850333D01*
X672113Y850917D01*
X672430Y851500D01*
X672873Y851917D01*
X673317Y852000D01*
X673760Y851833D01*
X674077Y851417D01*
G01X685507Y892500D02*
Y897500D01*
X686773D01*
X687280Y897250D01*
X687660Y896917D01*
X687977Y896417D01*
X688230Y895833D01*
X688293Y895000D01*
X688230Y894167D01*
X687977Y893583D01*
X687660Y893083D01*
X687280Y892750D01*
X686773Y892500D01*
X685507D01*
G01X692000D02*
Y897500D01*
X691240Y896500D01*
G01Y892500D02*
X692760D01*
G01X677900Y879000D02*
Y874000D01*
G01X676443Y879000D02*
X679357D01*
G01X681733Y874000D02*
Y879000D01*
X683253D01*
X683760Y878750D01*
X684140Y878167D01*
X684267Y877500D01*
X684140Y876833D01*
X683823Y876333D01*
X683253Y876083D01*
X681733D01*
G01X686707Y874750D02*
X687087Y874333D01*
X687530Y874083D01*
X688100Y874000D01*
X688670Y874167D01*
X689113Y874500D01*
X689430Y875083D01*
X689493Y875750D01*
X689367Y876417D01*
X689050Y876833D01*
X688607Y877167D01*
X688163Y877250D01*
X687720Y877167D01*
X687150Y876833D01*
X687340Y879000D01*
X689050D01*
G01X685633Y921000D02*
X685950Y920500D01*
X686330Y920167D01*
X686773Y920000D01*
X687280Y920167D01*
X687660Y920500D01*
X688040Y921000D01*
X688167Y921667D01*
Y925000D01*
G01X690607Y921000D02*
X690987Y920417D01*
X691493Y920083D01*
X692063Y920000D01*
X692570Y920083D01*
X693077Y920500D01*
X693393Y921000D01*
X693457Y921500D01*
X693330Y922083D01*
X692887Y922500D01*
X692443Y922667D01*
X691873D01*
G01X692443D02*
X692823Y922917D01*
X693140Y923333D01*
X693267Y923833D01*
X693140Y924333D01*
X692823Y924750D01*
X692253Y925000D01*
X691683Y924917D01*
X691113Y924583D01*
G01X675510Y928940D02*
Y933940D01*
X674750Y932940D01*
G01Y928940D02*
X676270D01*
G01X665633Y910000D02*
Y915000D01*
X667217D01*
X667723Y914750D01*
X668040Y914417D01*
X668167Y913750D01*
X668040Y913083D01*
X667660Y912667D01*
X667217Y912417D01*
X665633D01*
G01X667217D02*
X668167Y910000D01*
G01X670607Y910750D02*
X670987Y910333D01*
X671430Y910083D01*
X672000Y910000D01*
X672570Y910167D01*
X673013Y910500D01*
X673330Y911083D01*
X673393Y911750D01*
X673267Y912417D01*
X672950Y912833D01*
X672507Y913167D01*
X672063Y913250D01*
X671620Y913167D01*
X671050Y912833D01*
X671240Y915000D01*
X672950D01*
G01X671617Y950190D02*
X671997Y949773D01*
X672440Y949523D01*
X673010Y949440D01*
X673580Y949607D01*
X674023Y949940D01*
X674340Y950523D01*
X674403Y951190D01*
X674277Y951857D01*
X673960Y952273D01*
X673517Y952607D01*
X673073Y952690D01*
X672630Y952607D01*
X672060Y952273D01*
X672250Y954440D01*
X673960D01*
G01X660633Y940000D02*
Y945000D01*
X662217D01*
X662723Y944750D01*
X663040Y944417D01*
X663167Y943750D01*
X663040Y943083D01*
X662660Y942667D01*
X662217Y942417D01*
X660633D01*
G01X662217D02*
X663167Y940000D01*
G01X667760D02*
Y945000D01*
X665417Y941417D01*
X668583D01*
G01X672793Y967083D02*
X672953Y967333D01*
X673140Y967458D01*
X673353Y967500D01*
X673620Y967417D01*
X673807Y967208D01*
X673860Y966958D01*
X673833Y966708D01*
X673727Y966500D01*
X673193Y966083D01*
X672953Y965792D01*
X672793Y965375D01*
X672740Y965000D01*
X673860D01*
G01X675500Y967500D02*
X675287Y967417D01*
X675127Y967208D01*
X675020Y966958D01*
X674940Y966625D01*
X674913Y966250D01*
X674940Y965875D01*
X675020Y965542D01*
X675127Y965292D01*
X675287Y965083D01*
X675500Y965000D01*
X675713Y965083D01*
X675873Y965292D01*
X675980Y965542D01*
X676060Y965875D01*
X676087Y966250D01*
X676060Y966625D01*
X675980Y966958D01*
X675873Y967208D01*
X675713Y967417D01*
X675500Y967500D01*
G01X677193Y967083D02*
X677353Y967333D01*
X677540Y967458D01*
X677753Y967500D01*
X678020Y967417D01*
X678207Y967208D01*
X678260Y966958D01*
X678233Y966708D01*
X678127Y966500D01*
X677593Y966083D01*
X677353Y965792D01*
X677193Y965375D01*
X677140Y965000D01*
X678260D01*
G01X679900Y967500D02*
X679687Y967417D01*
X679527Y967208D01*
X679420Y966958D01*
X679340Y966625D01*
X679313Y966250D01*
X679340Y965875D01*
X679420Y965542D01*
X679527Y965292D01*
X679687Y965083D01*
X679900Y965000D01*
X680113Y965083D01*
X680273Y965292D01*
X680380Y965542D01*
X680460Y965875D01*
X680487Y966250D01*
X680460Y966625D01*
X680380Y966958D01*
X680273Y967208D01*
X680113Y967417D01*
X679900Y967500D01*
G01X681753Y965833D02*
X682447D01*
G01X684300Y967500D02*
X684087Y967417D01*
X683927Y967208D01*
X683820Y966958D01*
X683740Y966625D01*
X683713Y966250D01*
X683740Y965875D01*
X683820Y965542D01*
X683927Y965292D01*
X684087Y965083D01*
X684300Y965000D01*
X684513Y965083D01*
X684673Y965292D01*
X684780Y965542D01*
X684860Y965875D01*
X684887Y966250D01*
X684860Y966625D01*
X684780Y966958D01*
X684673Y967208D01*
X684513Y967417D01*
X684300Y967500D01*
G01X686500D02*
X686287Y967417D01*
X686127Y967208D01*
X686020Y966958D01*
X685940Y966625D01*
X685913Y966250D01*
X685940Y965875D01*
X686020Y965542D01*
X686127Y965292D01*
X686287Y965083D01*
X686500Y965000D01*
X686713Y965083D01*
X686873Y965292D01*
X686980Y965542D01*
X687060Y965875D01*
X687087Y966250D01*
X687060Y966625D01*
X686980Y966958D01*
X686873Y967208D01*
X686713Y967417D01*
X686500Y967500D01*
G01X688700Y965000D02*
Y967500D01*
X688380Y967000D01*
G01Y965000D02*
X689020D01*
G01X693580Y967500D02*
Y965000D01*
G01Y965375D02*
X693473Y965167D01*
X693313Y965042D01*
X693127Y965000D01*
X692913Y965083D01*
X692753Y965292D01*
X692647Y965542D01*
X692620Y965833D01*
X692647Y966125D01*
X692753Y966375D01*
X692913Y966583D01*
X693127Y966667D01*
X693313Y966625D01*
X693447Y966542D01*
X693580Y966375D01*
G01X694873Y964375D02*
X695060Y964208D01*
X695220Y964167D01*
X695433Y964250D01*
X695593Y964458D01*
X695673Y964833D01*
Y966667D01*
G01Y967333D02*
X695620Y967375D01*
Y967458D01*
X695673Y967500D01*
X695727Y967458D01*
Y967375D01*
X695673Y967333D01*
G01X697073Y964375D02*
X697260Y964208D01*
X697420Y964167D01*
X697633Y964250D01*
X697793Y964458D01*
X697873Y964833D01*
Y966667D01*
G01Y967333D02*
X697820Y967375D01*
Y967458D01*
X697873Y967500D01*
X697927Y967458D01*
Y967375D01*
X697873Y967333D01*
G01X699033Y966667D02*
X699353Y965000D01*
X699700Y966667D01*
X700047Y965000D01*
X700367Y966667D01*
G01X696633Y791000D02*
Y796000D01*
X698217D01*
X698723Y795750D01*
X699040Y795417D01*
X699167Y794750D01*
X699040Y794083D01*
X698660Y793667D01*
X698217Y793417D01*
X696633D01*
G01X698217D02*
X699167Y791000D01*
G01X701797Y795167D02*
X702177Y795667D01*
X702620Y795917D01*
X703127Y796000D01*
X703760Y795833D01*
X704203Y795417D01*
X704330Y794917D01*
X704267Y794417D01*
X704013Y794000D01*
X702747Y793167D01*
X702177Y792583D01*
X701797Y791750D01*
X701670Y791000D01*
X704330D01*
G01X706707Y792000D02*
X707087Y791417D01*
X707593Y791083D01*
X708163Y791000D01*
X708670Y791083D01*
X709177Y791500D01*
X709493Y792000D01*
X709557Y792500D01*
X709430Y793083D01*
X708987Y793500D01*
X708543Y793667D01*
X707973D01*
G01X708543D02*
X708923Y793917D01*
X709240Y794333D01*
X709367Y794833D01*
X709240Y795333D01*
X708923Y795750D01*
X708353Y796000D01*
X707783Y795917D01*
X707213Y795583D01*
G01X716570Y915667D02*
X717077Y915250D01*
X717647Y915000D01*
X718153D01*
X718660Y915250D01*
X719040Y915667D01*
X719230Y916250D01*
X719103Y916833D01*
X718787Y917333D01*
X718217Y917667D01*
X717457Y917833D01*
X717013Y918167D01*
X716823Y918750D01*
X716950Y919333D01*
X717267Y919750D01*
X717710Y920000D01*
X718153D01*
X718597Y919833D01*
X718977Y919417D01*
G01X721100Y920000D02*
X721987Y915000D01*
X723000Y920000D01*
X724013Y915000D01*
X724900Y920000D01*
G01X728100Y915000D02*
Y920000D01*
X727340Y919000D01*
G01Y915000D02*
X728860D01*
G01X701507Y926000D02*
X701887Y925417D01*
X702393Y925083D01*
X702963Y925000D01*
X703470Y925083D01*
X703977Y925500D01*
X704293Y926000D01*
X704357Y926500D01*
X704230Y927083D01*
X703787Y927500D01*
X703343Y927667D01*
X702773D01*
G01X703343D02*
X703723Y927917D01*
X704040Y928333D01*
X704167Y928833D01*
X704040Y929333D01*
X703723Y929750D01*
X703153Y930000D01*
X702583Y929917D01*
X702013Y929583D01*
G01X703010Y949440D02*
Y954440D01*
X702250Y953440D01*
G01Y949440D02*
X703770D01*
G01X715900Y970000D02*
Y965000D01*
G01X714443Y970000D02*
X717357D01*
G01X719733Y965000D02*
Y970000D01*
X721253D01*
X721760Y969750D01*
X722140Y969167D01*
X722267Y968500D01*
X722140Y967833D01*
X721823Y967333D01*
X721253Y967083D01*
X719733D01*
G01X726860Y965000D02*
Y970000D01*
X724517Y966417D01*
X727683D01*
G01X728133Y739000D02*
X728450Y739500D01*
X728830Y739833D01*
X729273Y740000D01*
X729780Y739833D01*
X730160Y739500D01*
X730540Y739000D01*
X730667Y738333D01*
Y735000D01*
G01X734373Y740000D02*
X734500Y738917D01*
X734690Y738000D01*
X734943Y737167D01*
X735260Y736250D01*
X735767Y735000D01*
X733233D01*
G01X723633Y800000D02*
Y805000D01*
X725217D01*
X725723Y804750D01*
X726040Y804417D01*
X726167Y803750D01*
X726040Y803083D01*
X725660Y802667D01*
X725217Y802417D01*
X723633D01*
G01X725217D02*
X726167Y800000D01*
G01X728797Y804167D02*
X729177Y804667D01*
X729620Y804917D01*
X730127Y805000D01*
X730760Y804833D01*
X731203Y804417D01*
X731330Y803917D01*
X731267Y803417D01*
X731013Y803000D01*
X729747Y802167D01*
X729177Y801583D01*
X728797Y800750D01*
X728670Y800000D01*
X731330D01*
G01X733897Y804167D02*
X734277Y804667D01*
X734720Y804917D01*
X735227Y805000D01*
X735860Y804833D01*
X736303Y804417D01*
X736430Y803917D01*
X736367Y803417D01*
X736113Y803000D01*
X734847Y802167D01*
X734277Y801583D01*
X733897Y800750D01*
X733770Y800000D01*
X736430D01*
G01X738633Y804000D02*
Y809000D01*
X740217D01*
X740723Y808750D01*
X741040Y808417D01*
X741167Y807750D01*
X741040Y807083D01*
X740660Y806667D01*
X740217Y806417D01*
X738633D01*
G01X740217D02*
X741167Y804000D01*
G01X743797Y808167D02*
X744177Y808667D01*
X744620Y808917D01*
X745127Y809000D01*
X745760Y808833D01*
X746203Y808417D01*
X746330Y807917D01*
X746267Y807417D01*
X746013Y807000D01*
X744747Y806167D01*
X744177Y805583D01*
X743797Y804750D01*
X743670Y804000D01*
X746330D01*
G01X750100Y809000D02*
X749593Y808833D01*
X749213Y808417D01*
X748960Y807917D01*
X748770Y807250D01*
X748707Y806500D01*
X748770Y805750D01*
X748960Y805083D01*
X749213Y804583D01*
X749593Y804167D01*
X750100Y804000D01*
X750607Y804167D01*
X750987Y804583D01*
X751240Y805083D01*
X751430Y805750D01*
X751493Y806500D01*
X751430Y807250D01*
X751240Y807917D01*
X750987Y808417D01*
X750607Y808833D01*
X750100Y809000D01*
G01X723633Y808000D02*
Y813000D01*
X725217D01*
X725723Y812750D01*
X726040Y812417D01*
X726167Y811750D01*
X726040Y811083D01*
X725660Y810667D01*
X725217Y810417D01*
X723633D01*
G01X725217D02*
X726167Y808000D01*
G01X730000D02*
Y813000D01*
X729240Y812000D01*
G01Y808000D02*
X730760D01*
G01X734023Y808583D02*
X734467Y808167D01*
X734973Y808000D01*
X735480Y808167D01*
X735923Y808667D01*
X736240Y809417D01*
X736367Y810167D01*
Y811083D01*
X736240Y811833D01*
X735923Y812500D01*
X735543Y812833D01*
X735100Y813000D01*
X734593Y812833D01*
X734213Y812500D01*
X733960Y812000D01*
X733833Y811333D01*
X733960Y810750D01*
X734277Y810167D01*
X734657Y809833D01*
X735100Y809750D01*
X735607Y809917D01*
X735987Y810333D01*
X736367Y811083D01*
G01X738633Y828000D02*
Y833000D01*
X740217D01*
X740723Y832750D01*
X741040Y832417D01*
X741167Y831750D01*
X741040Y831083D01*
X740660Y830667D01*
X740217Y830417D01*
X738633D01*
G01X740217D02*
X741167Y828000D01*
G01X745000D02*
Y833000D01*
X744240Y832000D01*
G01Y828000D02*
X745760D01*
G01X750100D02*
Y833000D01*
X749340Y832000D01*
G01Y828000D02*
X750860D01*
G01X723633Y832000D02*
Y837000D01*
X725217D01*
X725723Y836750D01*
X726040Y836417D01*
X726167Y835750D01*
X726040Y835083D01*
X725660Y834667D01*
X725217Y834417D01*
X723633D01*
G01X725217D02*
X726167Y832000D01*
G01X730000D02*
Y837000D01*
X729240Y836000D01*
G01Y832000D02*
X730760D01*
G01X735100Y837000D02*
X734593Y836833D01*
X734213Y836417D01*
X733960Y835917D01*
X733770Y835250D01*
X733707Y834500D01*
X733770Y833750D01*
X733960Y833083D01*
X734213Y832583D01*
X734593Y832167D01*
X735100Y832000D01*
X735607Y832167D01*
X735987Y832583D01*
X736240Y833083D01*
X736430Y833750D01*
X736493Y834500D01*
X736430Y835250D01*
X736240Y835917D01*
X735987Y836417D01*
X735607Y836833D01*
X735100Y837000D01*
G01X738633Y812000D02*
Y817000D01*
X740217D01*
X740723Y816750D01*
X741040Y816417D01*
X741167Y815750D01*
X741040Y815083D01*
X740660Y814667D01*
X740217Y814417D01*
X738633D01*
G01X740217D02*
X741167Y812000D01*
G01X745000D02*
Y817000D01*
X744240Y816000D01*
G01Y812000D02*
X745760D01*
G01X750100D02*
X750543Y812083D01*
X751050Y812333D01*
X751367Y812750D01*
X751493Y813333D01*
X751367Y813917D01*
X750987Y814417D01*
X750417Y814667D01*
X749783D01*
X749403Y814833D01*
X749087Y815250D01*
X748960Y815833D01*
X749150Y816417D01*
X749593Y816833D01*
X750100Y817000D01*
X750607Y816833D01*
X751050Y816417D01*
X751240Y815833D01*
X751113Y815250D01*
X750797Y814833D01*
X750417Y814667D01*
X749783D01*
X749213Y814417D01*
X748833Y813917D01*
X748707Y813333D01*
X748833Y812750D01*
X749150Y812333D01*
X749657Y812083D01*
X750100Y812000D01*
G01X723633Y816000D02*
Y821000D01*
X725217D01*
X725723Y820750D01*
X726040Y820417D01*
X726167Y819750D01*
X726040Y819083D01*
X725660Y818667D01*
X725217Y818417D01*
X723633D01*
G01X725217D02*
X726167Y816000D01*
G01X730000D02*
Y821000D01*
X729240Y820000D01*
G01Y816000D02*
X730760D01*
G01X733897Y818083D02*
X734340Y818667D01*
X734720Y819000D01*
X735227Y819167D01*
X735670Y819000D01*
X735987Y818667D01*
X736240Y818167D01*
X736303Y817583D01*
X736240Y817083D01*
X735987Y816583D01*
X735607Y816167D01*
X735163Y816000D01*
X734657Y816167D01*
X734213Y816667D01*
X733960Y817417D01*
X733897Y818250D01*
X734023Y819333D01*
X734213Y819917D01*
X734530Y820500D01*
X734973Y820917D01*
X735417Y821000D01*
X735860Y820833D01*
X736177Y820417D01*
G01X738633Y820000D02*
Y825000D01*
X740217D01*
X740723Y824750D01*
X741040Y824417D01*
X741167Y823750D01*
X741040Y823083D01*
X740660Y822667D01*
X740217Y822417D01*
X738633D01*
G01X740217D02*
X741167Y820000D01*
G01X745000D02*
Y825000D01*
X744240Y824000D01*
G01Y820000D02*
X745760D01*
G01X748707Y820750D02*
X749087Y820333D01*
X749530Y820083D01*
X750100Y820000D01*
X750670Y820167D01*
X751113Y820500D01*
X751430Y821083D01*
X751493Y821750D01*
X751367Y822417D01*
X751050Y822833D01*
X750607Y823167D01*
X750163Y823250D01*
X749720Y823167D01*
X749150Y822833D01*
X749340Y825000D01*
X751050D01*
G01X723633Y824000D02*
Y829000D01*
X725217D01*
X725723Y828750D01*
X726040Y828417D01*
X726167Y827750D01*
X726040Y827083D01*
X725660Y826667D01*
X725217Y826417D01*
X723633D01*
G01X725217D02*
X726167Y824000D01*
G01X730000D02*
Y829000D01*
X729240Y828000D01*
G01Y824000D02*
X730760D01*
G01X733707Y825000D02*
X734087Y824417D01*
X734593Y824083D01*
X735163Y824000D01*
X735670Y824083D01*
X736177Y824500D01*
X736493Y825000D01*
X736557Y825500D01*
X736430Y826083D01*
X735987Y826500D01*
X735543Y826667D01*
X734973D01*
G01X735543D02*
X735923Y826917D01*
X736240Y827333D01*
X736367Y827833D01*
X736240Y828333D01*
X735923Y828750D01*
X735353Y829000D01*
X734783Y828917D01*
X734213Y828583D01*
G01X740900Y925000D02*
Y930000D01*
X740140Y929000D01*
G01Y925000D02*
X741660D01*
G01X737900Y963500D02*
Y958500D01*
G01X736443Y963500D02*
X739357D01*
G01X741733Y958500D02*
Y963500D01*
X743253D01*
X743760Y963250D01*
X744140Y962667D01*
X744267Y962000D01*
X744140Y961333D01*
X743823Y960833D01*
X743253Y960583D01*
X741733D01*
G01X746897Y962667D02*
X747277Y963167D01*
X747720Y963417D01*
X748227Y963500D01*
X748860Y963333D01*
X749303Y962917D01*
X749430Y962417D01*
X749367Y961917D01*
X749113Y961500D01*
X747847Y960667D01*
X747277Y960083D01*
X746897Y959250D01*
X746770Y958500D01*
X749430D01*
G01X768633Y951000D02*
X768950Y950500D01*
X769330Y950167D01*
X769773Y950000D01*
X770280Y950167D01*
X770660Y950500D01*
X771040Y951000D01*
X771167Y951667D01*
Y955000D01*
G01X775760Y950000D02*
Y955000D01*
X773417Y951417D01*
X776583D01*
G01X761617Y950190D02*
X761997Y949773D01*
X762440Y949523D01*
X763010Y949440D01*
X763580Y949607D01*
X764023Y949940D01*
X764340Y950523D01*
X764403Y951190D01*
X764277Y951857D01*
X763960Y952273D01*
X763517Y952607D01*
X763073Y952690D01*
X762630Y952607D01*
X762060Y952273D01*
X762250Y954440D01*
X763960D01*
G01X759400Y970000D02*
Y965000D01*
G01X757943Y970000D02*
X760857D01*
G01X763233Y965000D02*
Y970000D01*
X764753D01*
X765260Y969750D01*
X765640Y969167D01*
X765767Y968500D01*
X765640Y967833D01*
X765323Y967333D01*
X764753Y967083D01*
X763233D01*
G01X768207Y966000D02*
X768587Y965417D01*
X769093Y965083D01*
X769663Y965000D01*
X770170Y965083D01*
X770677Y965500D01*
X770993Y966000D01*
X771057Y966500D01*
X770930Y967083D01*
X770487Y967500D01*
X770043Y967667D01*
X769473D01*
G01X770043D02*
X770423Y967917D01*
X770740Y968333D01*
X770867Y968833D01*
X770740Y969333D01*
X770423Y969750D01*
X769853Y970000D01*
X769283Y969917D01*
X768713Y969583D01*
G54D13*
G01X634700Y933250D02*
X618700D01*
G01D02*
Y940750D01*
G01D02*
X634700D01*
G01X647250Y800300D02*
Y816300D01*
G01X654750D02*
Y800300D01*
G01D02*
X647250D01*
G01X663200Y800950D02*
X656750D01*
G01D02*
Y812450D01*
G01X647250Y816300D02*
X654750D01*
G01X656750Y812450D02*
X663200D01*
G01X651550Y818750D02*
Y825200D01*
G01D02*
X663050D01*
G01Y818750D02*
X651550D01*
G01X638550Y823750D02*
Y830200D01*
G01D02*
X650050D01*
G01D02*
Y823750D01*
G01D02*
X638550D01*
G01X651550Y827250D02*
Y833700D01*
G01D02*
X663050D01*
G01Y827250D02*
X651550D01*
G01X638750Y857700D02*
Y841700D01*
G01D02*
X631250D01*
G01D02*
Y857700D01*
G01D02*
X638750D01*
G01X638200Y870950D02*
Y859450D01*
G01D02*
X631750D01*
G01D02*
Y870950D01*
G01D02*
X638200D01*
G01X631250Y906800D02*
Y922800D01*
G01D02*
X638750D01*
G01D02*
Y906800D01*
G01D02*
X631250D01*
G01X665750Y927050D02*
X659300D01*
G01D02*
Y938550D01*
G01X655750Y927050D02*
X649300D01*
G01D02*
Y938550D01*
G01X655750D02*
Y927050D01*
G01X654250Y917950D02*
X660700D01*
G01Y906450D02*
X654250D01*
G01D02*
Y917950D01*
G01X634700Y940750D02*
Y933250D01*
G01X659300Y938550D02*
X665750D01*
G01X649300D02*
X655750D01*
G01X682250Y774050D02*
X675800D01*
G01D02*
Y785550D01*
G01X682250D02*
Y774050D01*
G01X660750Y783800D02*
Y799800D01*
G01D02*
X668250D01*
G01D02*
Y783800D01*
G01D02*
X660750D01*
G01X663200Y812450D02*
Y800950D01*
G01X671250Y798950D02*
X677700D01*
G01D02*
Y787450D01*
G01D02*
X671250D01*
G01D02*
Y798950D01*
G01X675800Y785550D02*
X682250D01*
G01X679750Y798950D02*
X686200D01*
G01D02*
Y787450D01*
G01D02*
X679750D01*
G01D02*
Y798950D01*
G01X688250D02*
X694700D01*
G01Y787450D02*
X688250D01*
G01D02*
Y798950D01*
G01X692200Y834450D02*
X685750D01*
G01D02*
Y845950D01*
G01X683700D02*
Y834450D01*
G01D02*
X677250D01*
G01D02*
Y845950D01*
G01X675200D02*
Y834450D01*
G01D02*
X668750D01*
G01D02*
Y845950D01*
G01X663050Y825200D02*
Y818750D01*
G01Y833700D02*
Y827250D01*
G01X685750Y845950D02*
X692200D01*
G01X677250D02*
X683700D01*
G01X668750D02*
X675200D01*
G01X682250Y903700D02*
Y887700D01*
G01D02*
X674750D01*
G01D02*
Y903700D01*
G01D02*
X682250D01*
G01X665750Y938550D02*
Y927050D01*
G01X660700Y917950D02*
Y906450D01*
G01X675250Y917950D02*
X681700D01*
G01D02*
Y906450D01*
G01D02*
X675250D01*
G01D02*
Y917950D01*
G01X694700Y798950D02*
Y787450D01*
G01X697050Y799250D02*
Y805700D01*
G01D02*
X708550D01*
G01D02*
Y799250D01*
G01D02*
X697050D01*
G01X710550Y802750D02*
Y809200D01*
G01D02*
X722050D01*
G01Y802750D02*
X710550D01*
G01X697050Y807250D02*
Y813700D01*
G01X708550D02*
Y807250D01*
G01D02*
X697050D01*
G01X710550Y826750D02*
Y833200D01*
G01D02*
X722050D01*
G01Y826750D02*
X710550D01*
G01X697050Y830750D02*
Y837200D01*
G01D02*
X708550D01*
G01D02*
Y830750D01*
G01D02*
X697050D01*
G01X692200Y845950D02*
Y834450D01*
G01X697050Y813700D02*
X708550D01*
G01X710550Y811250D02*
Y817700D01*
G01D02*
X722050D01*
G01Y811250D02*
X710550D01*
G01X697050Y815250D02*
Y821700D01*
G01D02*
X708550D01*
G01D02*
Y815250D01*
G01D02*
X697050D01*
G01X710550Y819250D02*
Y825700D01*
G01D02*
X722050D01*
G01Y819250D02*
X710550D01*
G01X697050Y823250D02*
Y829700D01*
G01D02*
X708550D01*
G01D02*
Y823250D01*
G01D02*
X697050D01*
G01X722050Y809200D02*
Y802750D01*
G01Y833200D02*
Y826750D01*
G01Y817700D02*
Y811250D01*
G01Y825700D02*
Y819250D01*
G54D14*
G01X613000Y889000D02*
X593000D01*
G01D02*
Y879000D01*
G01D02*
X613000D01*
G01X612500Y712500D02*
Y732500D01*
G01X652500Y712500D02*
X612500D01*
G01Y732500D02*
X652500D01*
G01X613000Y879000D02*
Y889000D01*
G01X627500Y904000D02*
Y924000D01*
G01D02*
X617500D01*
G01D02*
Y904000D01*
G01D02*
X627500D01*
G01X667500Y957500D02*
X617500D01*
G01D02*
Y947500D01*
G01D02*
X667500D01*
G01X652500Y732500D02*
Y712500D01*
G01X680000Y937000D02*
Y927000D01*
G01D02*
X700000D01*
G01X667500Y947500D02*
Y957500D01*
G01X700000Y937000D02*
X680000D01*
G01X700000Y927000D02*
Y937000D01*
G01X707500Y922500D02*
X737500D01*
G01X707500Y932500D02*
Y922500D01*
G01X757500Y957500D02*
X707500D01*
G01D02*
Y947500D01*
G01D02*
X757500D01*
G01X737500Y932500D02*
X707500D01*
G01X727500Y712500D02*
Y732500D01*
G01X767500Y712500D02*
X727500D01*
G01Y732500D02*
X767500D01*
G01X737500Y922500D02*
Y932500D01*
G01X767500Y732500D02*
Y712500D01*
G01X757500Y947500D02*
Y957500D01*
G54D15*
G01X690256Y808515D02*
Y811665D01*
X689863Y811035D01*
G01Y808515D02*
X690650D01*
G01X692095Y809145D02*
X692291Y808777D01*
X692554Y808567D01*
X692849Y808515D01*
X693112Y808567D01*
X693374Y808830D01*
X693538Y809145D01*
X693571Y809460D01*
X693506Y809827D01*
X693276Y810090D01*
X693046Y810195D01*
X692751D01*
G01X693046D02*
X693243Y810352D01*
X693407Y810615D01*
X693473Y810930D01*
X693407Y811245D01*
X693243Y811507D01*
X692948Y811665D01*
X692652Y811613D01*
X692357Y811402D01*
G01X674541Y802116D02*
X674606Y802798D01*
X674705Y803376D01*
X674836Y803901D01*
X675000Y804478D01*
X675263Y805266D01*
X673950D01*
G01X683184Y802031D02*
Y805181D01*
X682791Y804551D01*
G01Y802031D02*
X683578D01*
G01X685121Y804656D02*
X685318Y804971D01*
X685548Y805129D01*
X685810Y805181D01*
X686138Y805076D01*
X686368Y804813D01*
X686434Y804499D01*
X686401Y804183D01*
X686270Y803921D01*
X685613Y803396D01*
X685318Y803028D01*
X685121Y802503D01*
X685055Y802031D01*
X686434D01*
G01X667727Y810114D02*
X667957Y810482D01*
X668154Y810692D01*
X668416Y810797D01*
X668646Y810692D01*
X668810Y810482D01*
X668941Y810167D01*
X668974Y809799D01*
X668941Y809484D01*
X668810Y809169D01*
X668613Y808907D01*
X668383Y808802D01*
X668121Y808907D01*
X667891Y809222D01*
X667760Y809695D01*
X667727Y810219D01*
X667793Y810902D01*
X667891Y811270D01*
X668055Y811637D01*
X668285Y811900D01*
X668515Y811952D01*
X668744Y811847D01*
X668908Y811584D01*
G01X671639Y828577D02*
X671836Y828892D01*
X672066Y829050D01*
X672328Y829102D01*
X672656Y828997D01*
X672886Y828734D01*
X672952Y828420D01*
X672919Y828104D01*
X672788Y827842D01*
X672131Y827317D01*
X671836Y826949D01*
X671639Y826424D01*
X671573Y825952D01*
X672952D01*
G01X675216D02*
Y829102D01*
X674002Y826845D01*
X675643D01*
G01X683146Y826186D02*
Y829336D01*
X682753Y828706D01*
G01Y826186D02*
X683540D01*
G01X685149Y826553D02*
X685378Y826291D01*
X685641Y826186D01*
X685903Y826291D01*
X686133Y826606D01*
X686297Y827079D01*
X686363Y827551D01*
Y828128D01*
X686297Y828601D01*
X686133Y829021D01*
X685936Y829231D01*
X685706Y829336D01*
X685444Y829231D01*
X685247Y829021D01*
X685116Y828706D01*
X685050Y828286D01*
X685116Y827919D01*
X685280Y827551D01*
X685477Y827341D01*
X685706Y827288D01*
X685969Y827393D01*
X686166Y827656D01*
X686363Y828128D01*
G01X690373Y819048D02*
Y822198D01*
X689980Y821568D01*
G01Y819048D02*
X690767D01*
G01X692933D02*
X693163Y819100D01*
X693426Y819258D01*
X693590Y819520D01*
X693655Y819888D01*
X693590Y820255D01*
X693393Y820570D01*
X693098Y820728D01*
X692769D01*
X692573Y820833D01*
X692408Y821095D01*
X692343Y821463D01*
X692441Y821830D01*
X692671Y822093D01*
X692933Y822198D01*
X693196Y822093D01*
X693426Y821830D01*
X693524Y821463D01*
X693459Y821095D01*
X693294Y820833D01*
X693098Y820728D01*
X692769D01*
X692474Y820570D01*
X692277Y820255D01*
X692212Y819888D01*
X692277Y819520D01*
X692441Y819258D01*
X692704Y819100D01*
X692933Y819048D01*
G54D16*
G01X672807Y807429D02*
X671429D01*
Y808807D01*
G01X687571D02*
Y807429D01*
X686193D01*
G01Y823571D02*
X687571D01*
Y822193D01*
G01X671429D02*
Y823571D01*
X672807D01*
M02*
