G04 ================== begin FILE IDENTIFICATION RECORD ==================*
G04 Layout Name:  touchcontroller.brd*
G04 Film Name:    DJJW_SMBOT*
G04 File Format:  Gerber RS274X*
G04 File Origin:  Cadence Allegro -unreleased*
G04 Origin Date:  Sun Feb 16 15:49:09 2020*
G04 *
G04 Layer:  PIN/SOLDERMASK_BOTTOM*
G04 Layer:  BOARD GEOMETRY/DESIGN_OUTLINE*
G04 Layer:  BOARD GEOMETRY/CUTOUT*
G04 *
G04 Offset:    (0.00 0.00)*
G04 Mirror:    No*
G04 Mode:      Positive*
G04 Rotation:  0*
G04 FullContactRelief:  No*
G04 UndefLineWidth:     7.00*
G04 ================== end FILE IDENTIFICATION RECORD ====================*
%FSLAX25Y25*MOIN*%
%IR0*IPPOS*OFA0.00000B0.00000*MIA0B0*SFA1.00000B1.00000*%
%ADD12C,.06*%
%ADD11C,.058*%
%ADD10R,.058X.058*%
%ADD13C,.007*%
G75*
%LPD*%
G75*
G54D10*
X598000Y884000D03*
X617500Y727500D03*
X622500Y919000D03*
Y952500D03*
X685000Y932000D03*
X712500Y952500D03*
X732500Y727500D03*
Y927500D03*
G54D11*
X617500Y717500D03*
X627500D03*
Y727500D03*
X608000Y884000D03*
X622500Y909000D03*
X632500Y952500D03*
X637500Y717500D03*
X647500D03*
X637500Y727500D03*
X647500D03*
X642500Y952500D03*
X652500D03*
X662500D03*
X695000Y932000D03*
X722500Y927500D03*
X712500D03*
X722500Y952500D03*
X732500Y717500D03*
X742500D03*
X752500D03*
X742500Y727500D03*
X752500D03*
X732500Y952500D03*
X742500D03*
X752500D03*
X762500Y717500D03*
Y727500D03*
G54D12*
X622500Y967500D03*
X632500D03*
X672000Y877000D03*
X742500Y967500D03*
X752500D03*
X732500D03*
G54D13*
G01X590000Y697500D02*
Y972500D01*
X790000D01*
Y697500D01*
X590000D01*
M02*
