G04 ================== begin FILE IDENTIFICATION RECORD ==================*
G04 Layout Name:  touchcontroller.brd*
G04 Film Name:    DJJW_SMTOP*
G04 File Format:  Gerber RS274X*
G04 File Origin:  Cadence Allegro -unreleased*
G04 Origin Date:  Sun Feb 16 15:49:09 2020*
G04 *
G04 Layer:  PIN/SOLDERMASK_TOP*
G04 Layer:  BOARD GEOMETRY/DESIGN_OUTLINE*
G04 Layer:  BOARD GEOMETRY/CUTOUT*
G04 *
G04 Offset:    (0.00 0.00)*
G04 Mirror:    No*
G04 Mode:      Positive*
G04 Rotation:  0*
G04 FullContactRelief:  No*
G04 UndefLineWidth:     7.00*
G04 ================== end FILE IDENTIFICATION RECORD ====================*
%FSLAX25Y25*MOIN*%
%IR0*IPPOS*OFA0.00000B0.00000*MIA0B0*SFA1.00000B1.00000*%
%ADD13C,.06*%
%ADD12R,.05X.05*%
%ADD11C,.058*%
%ADD10R,.058X.058*%
%ADD17C,.07874*%
%ADD15R,.032X.038*%
%ADD14R,.038X.032*%
%ADD19O,.01575X.03543*%
%ADD18O,.03543X.01575*%
%ADD20R,.10827X.10827*%
%ADD16R,.06299X.08622*%
%ADD21C,.007*%
G75*
%LPD*%
G75*
G54D10*
X598000Y884000D03*
X617500Y727500D03*
X622500Y919000D03*
Y952500D03*
X685000Y932000D03*
X712500Y952500D03*
X732500Y727500D03*
Y927500D03*
G54D20*
X679500Y815500D03*
G54D11*
X617500Y717500D03*
X627500D03*
Y727500D03*
X608000Y884000D03*
X622500Y909000D03*
X632500Y952500D03*
X637500Y717500D03*
X647500D03*
X637500Y727500D03*
X647500D03*
X642500Y952500D03*
X652500D03*
X662500D03*
X695000Y932000D03*
X722500Y927500D03*
X712500D03*
X722500Y952500D03*
X732500Y717500D03*
X742500D03*
X752500D03*
X742500Y727500D03*
X752500D03*
X732500Y952500D03*
X742500D03*
X752500D03*
X762500Y717500D03*
Y727500D03*
G54D21*
G01X590000Y697500D02*
Y972500D01*
X790000D01*
Y697500D01*
X590000D01*
G54D12*
X622500Y937000D03*
X630900D03*
X651000Y804100D03*
Y812500D03*
X635000Y845500D03*
Y853900D03*
Y919000D03*
Y910600D03*
X664500Y796000D03*
Y787600D03*
X678500Y891500D03*
Y899900D03*
G54D13*
X622500Y967500D03*
X632500D03*
X672000Y877000D03*
X742500Y967500D03*
X752500D03*
X732500D03*
G54D14*
X660000Y809500D03*
Y803900D03*
X635000Y868000D03*
Y862400D03*
X652500Y930000D03*
X657500Y915000D03*
Y909400D03*
X652500Y935600D03*
X679000Y777000D03*
X674500Y796000D03*
Y790400D03*
X679000Y782600D03*
X683000Y796000D03*
Y790400D03*
X691500Y796000D03*
Y790400D03*
X689000Y837400D03*
X680500D03*
X672000D03*
X689000Y843000D03*
X680500D03*
X672000D03*
X662500Y930000D03*
X678500Y915000D03*
Y909400D03*
X662500Y935600D03*
G54D15*
X654500Y822000D03*
X660100D03*
X641500Y827000D03*
X647100D03*
X654500Y830500D03*
X660100D03*
X700000Y802500D03*
X705600D03*
X713500Y806000D03*
X719100D03*
X700000Y810500D03*
X705600D03*
X713500Y830000D03*
X719100D03*
X700000Y834000D03*
X705600D03*
X713500Y814500D03*
X719100D03*
X700000Y818500D03*
X705600D03*
X713500Y822500D03*
X719100D03*
X700000Y826500D03*
X705600D03*
G54D16*
X657500Y859429D03*
Y895571D03*
G54D17*
X668439Y804439D03*
X690561Y826561D03*
G54D18*
X687374Y810579D03*
X671626D03*
X687374Y820421D03*
Y818453D03*
Y816484D03*
Y814516D03*
Y812547D03*
X671626D03*
Y814516D03*
Y816484D03*
Y818453D03*
Y820421D03*
G54D19*
X684421Y807626D03*
X682453D03*
X680484D03*
X678516D03*
X676547D03*
X674579D03*
Y823374D03*
X676547D03*
X678516D03*
X680484D03*
X682453D03*
X684421D03*
M02*
