G04 ================== begin FILE IDENTIFICATION RECORD ==================*
G04 Layout Name:  touchcontroller.brd*
G04 Film Name:    TOP*
G04 File Format:  Gerber RS274X*
G04 File Origin:  Cadence Allegro -unreleased*
G04 Origin Date:  Mon Feb 24 15:45:29 2020*
G04 *
G04 Layer:  BOARD GEOMETRY/DESIGN_OUTLINE*
G04 Layer:  BOARD GEOMETRY/CUTOUT*
G04 Layer:  ETCH/TOP*
G04 Layer:  PIN/TOP*
G04 Layer:  VIA CLASS/TOP*
G04 *
G04 Offset:    (0.00 0.00)*
G04 Mirror:    No*
G04 Mode:      Positive*
G04 Rotation:  0*
G04 FullContactRelief:  No*
G04 UndefLineWidth:     7.00*
G04 ================== end FILE IDENTIFICATION RECORD ====================*
%FSLAX25Y25*MOIN*%
%IR0*IPPOS*OFA0.00000B0.00000*MIA0B0*SFA1.00000B1.00000*%
%ADD12C,.024*%
%ADD14C,.055*%
%ADD13R,.05X.05*%
%ADD11C,.058*%
%ADD10R,.058X.058*%
%ADD18C,.03937*%
%ADD16R,.032X.038*%
%ADD20O,.01181X.0315*%
%ADD15R,.038X.032*%
%ADD19O,.0315X.01181*%
%ADD21R,.10827X.10827*%
%ADD17R,.06299X.08622*%
%ADD22C,.01*%
%ADD23C,.02*%
%ADD24C,.03*%
%ADD25C,.007*%
G75*
%LPD*%
G75*
G54D10*
X598000Y884000D03*
X617500Y727500D03*
X622500Y919000D03*
Y952500D03*
X685000Y932000D03*
X712500Y952500D03*
X732500Y727500D03*
Y927500D03*
G54D20*
X684421Y807626D03*
X682453D03*
X680484D03*
X678516D03*
X676547D03*
X674579D03*
Y823374D03*
X676547D03*
X678516D03*
X680484D03*
X682453D03*
X684421D03*
G54D11*
X617500Y717500D03*
X627500D03*
Y727500D03*
X608000Y884000D03*
X622500Y909000D03*
X632500Y952500D03*
X637500Y717500D03*
X647500D03*
X637500Y727500D03*
X647500D03*
X642500Y952500D03*
X652500D03*
X662500D03*
X695000Y932000D03*
X722500Y927500D03*
X712500D03*
X722500Y952500D03*
X732500Y717500D03*
X742500D03*
X752500D03*
X742500Y727500D03*
X752500D03*
X732500Y952500D03*
X742500D03*
X752500D03*
X762500Y717500D03*
Y727500D03*
G54D21*
X679500Y815500D03*
G54D12*
X627500Y827500D03*
X637500Y751000D03*
X655000Y735000D03*
X655500Y804000D03*
X641500Y802500D03*
X645000Y822000D03*
X657500Y851500D03*
X671000Y746500D03*
X678000Y722500D03*
X670000Y789000D03*
X687475Y783475D03*
X676500Y818000D03*
X682000D03*
X676500Y812500D03*
X682000D03*
X665000Y818000D03*
X663000Y845500D03*
X718500Y747000D03*
X698400Y790400D03*
X709500Y810500D03*
X716500Y834000D03*
X718000Y961500D03*
X725000Y830000D03*
X730000Y822500D03*
X735500Y825000D03*
X742500Y814500D03*
G54D22*
G01X664500Y787600D02*
X642600D01*
X637500Y782500D01*
Y751000D01*
G01X660000Y803900D02*
X655600D01*
X655500Y804000D01*
G01X651000Y804100D02*
X655400D01*
X655500Y804000D01*
G01X635000Y853900D02*
Y862400D01*
G01X657500Y859429D02*
Y851500D01*
G01X663000Y845500D02*
X635000D01*
G01Y868000D02*
Y910600D01*
G01X657500Y909400D02*
Y895571D01*
G01D02*
X667929D01*
X672000Y891500D01*
Y877000D01*
G01X678500Y915000D02*
X657500D01*
G01D02*
X649500D01*
X645100Y910600D01*
X635000D01*
G01X662500Y930000D02*
X652500D01*
G01X657500Y915000D02*
Y919000D01*
X652500Y924000D01*
Y930000D01*
G01Y935600D02*
Y952500D01*
G01X679000Y777000D02*
X676100D01*
X670000Y783100D01*
Y789000D01*
G01X674500Y790400D02*
X671400D01*
X670000Y789000D01*
G01D02*
X668500Y787500D01*
X664600D01*
X664500Y787600D01*
G01X676547Y807626D02*
Y810547D01*
X679500Y813500D01*
Y815500D01*
G01X676547Y807626D02*
Y798868D01*
X677400Y798015D01*
Y793000D01*
X674800Y790400D01*
X674500D01*
G01X674579Y807626D02*
Y796079D01*
X674500Y796000D01*
G01X671626Y816484D02*
X666516D01*
X665000Y818000D01*
G01X676547Y823374D02*
Y849547D01*
X732500Y905500D01*
Y927500D01*
G01X689000Y837400D02*
X685750D01*
X680484Y832134D01*
Y823374D01*
G01X680500Y837400D02*
Y834950D01*
X678516Y832966D01*
Y823374D01*
G01X672000Y837400D02*
Y829000D01*
X674579Y826421D01*
Y823374D01*
G01X689000Y843000D02*
Y849500D01*
X752500Y913000D01*
Y952500D01*
G01X672000Y843000D02*
Y877000D01*
G01X680500Y843000D02*
Y847000D01*
X742500Y909000D01*
Y952500D01*
G01X685000Y932000D02*
Y898000D01*
X678500Y891500D01*
G01Y909400D02*
Y899900D01*
G01X672000Y877000D02*
X697500D01*
X712500Y892000D01*
Y927500D01*
G01X662500Y935600D02*
Y952500D01*
G01X718000Y961500D02*
X743500D01*
X752500Y952500D01*
G01X732500D02*
Y927500D01*
G01X752500Y952500D02*
Y967500D01*
G54D13*
X622500Y937000D03*
X630900D03*
X651000Y804100D03*
Y812500D03*
X635000Y845500D03*
Y853900D03*
Y919000D03*
Y910600D03*
X664500Y796000D03*
Y787600D03*
X678500Y891500D03*
Y899900D03*
G54D23*
G01X664500Y796000D02*
X658500D01*
G01X622500Y919000D02*
X635000D01*
G01X622500Y931500D02*
Y937000D01*
G01X635000Y910600D02*
X631000D01*
X629400Y909000D01*
X622500D01*
G01X630900Y937000D02*
Y946500D01*
X632500Y948100D01*
Y952500D01*
G01X622500Y943000D02*
Y937000D01*
G01X674500Y796000D02*
X664500D01*
G54D14*
X622500Y967500D03*
X632500D03*
X672000Y877000D03*
X742500Y967500D03*
X752500D03*
X732500D03*
G54D24*
G01X658500Y796000D02*
X633500D01*
X622500Y807000D01*
Y909000D01*
G01Y919000D02*
Y931500D01*
G01Y909000D02*
X611000Y920500D01*
Y956000D01*
X622500Y967500D01*
G01X712500Y952500D02*
X703500Y961500D01*
X631500D01*
X622500Y952500D01*
G01D02*
Y943000D01*
G54D15*
X660000Y809500D03*
Y803900D03*
X635000Y868000D03*
Y862400D03*
X652500Y930000D03*
X657500Y915000D03*
Y909400D03*
X652500Y935600D03*
X679000Y777000D03*
X674500Y796000D03*
Y790400D03*
X679000Y782600D03*
X683000Y796000D03*
Y790400D03*
X691500Y796000D03*
Y790400D03*
X689000Y837400D03*
X680500D03*
X672000D03*
X689000Y843000D03*
X680500D03*
X672000D03*
X662500Y930000D03*
X678500Y915000D03*
Y909400D03*
X662500Y935600D03*
G54D25*
G01X590000Y697500D02*
Y972500D01*
X790000D01*
Y697500D01*
X590000D01*
G01X674293Y711083D02*
X674453Y711333D01*
X674640Y711458D01*
X674853Y711500D01*
X675120Y711417D01*
X675307Y711208D01*
X675360Y710958D01*
X675333Y710708D01*
X675227Y710500D01*
X674693Y710083D01*
X674453Y709792D01*
X674293Y709375D01*
X674240Y709000D01*
X675360D01*
G01X677000Y711500D02*
X676787Y711417D01*
X676627Y711208D01*
X676520Y710958D01*
X676440Y710625D01*
X676413Y710250D01*
X676440Y709875D01*
X676520Y709542D01*
X676627Y709292D01*
X676787Y709083D01*
X677000Y709000D01*
X677213Y709083D01*
X677373Y709292D01*
X677480Y709542D01*
X677560Y709875D01*
X677587Y710250D01*
X677560Y710625D01*
X677480Y710958D01*
X677373Y711208D01*
X677213Y711417D01*
X677000Y711500D01*
G01X678693Y711083D02*
X678853Y711333D01*
X679040Y711458D01*
X679253Y711500D01*
X679520Y711417D01*
X679707Y711208D01*
X679760Y710958D01*
X679733Y710708D01*
X679627Y710500D01*
X679093Y710083D01*
X678853Y709792D01*
X678693Y709375D01*
X678640Y709000D01*
X679760D01*
G01X681400Y711500D02*
X681187Y711417D01*
X681027Y711208D01*
X680920Y710958D01*
X680840Y710625D01*
X680813Y710250D01*
X680840Y709875D01*
X680920Y709542D01*
X681027Y709292D01*
X681187Y709083D01*
X681400Y709000D01*
X681613Y709083D01*
X681773Y709292D01*
X681880Y709542D01*
X681960Y709875D01*
X681987Y710250D01*
X681960Y710625D01*
X681880Y710958D01*
X681773Y711208D01*
X681613Y711417D01*
X681400Y711500D01*
G01X683253Y709833D02*
X683947D01*
G01X685800Y711500D02*
X685587Y711417D01*
X685427Y711208D01*
X685320Y710958D01*
X685240Y710625D01*
X685213Y710250D01*
X685240Y709875D01*
X685320Y709542D01*
X685427Y709292D01*
X685587Y709083D01*
X685800Y709000D01*
X686013Y709083D01*
X686173Y709292D01*
X686280Y709542D01*
X686360Y709875D01*
X686387Y710250D01*
X686360Y710625D01*
X686280Y710958D01*
X686173Y711208D01*
X686013Y711417D01*
X685800Y711500D01*
G01X688000D02*
X687787Y711417D01*
X687627Y711208D01*
X687520Y710958D01*
X687440Y710625D01*
X687413Y710250D01*
X687440Y709875D01*
X687520Y709542D01*
X687627Y709292D01*
X687787Y709083D01*
X688000Y709000D01*
X688213Y709083D01*
X688373Y709292D01*
X688480Y709542D01*
X688560Y709875D01*
X688587Y710250D01*
X688560Y710625D01*
X688480Y710958D01*
X688373Y711208D01*
X688213Y711417D01*
X688000Y711500D01*
G01X690200Y709000D02*
Y711500D01*
X689880Y711000D01*
G01Y709000D02*
X690520D01*
G01X695080Y711500D02*
Y709000D01*
G01Y709375D02*
X694973Y709167D01*
X694813Y709042D01*
X694627Y709000D01*
X694413Y709083D01*
X694253Y709292D01*
X694147Y709542D01*
X694120Y709833D01*
X694147Y710125D01*
X694253Y710375D01*
X694413Y710583D01*
X694627Y710667D01*
X694813Y710625D01*
X694947Y710542D01*
X695080Y710375D01*
G01X696373Y708375D02*
X696560Y708208D01*
X696720Y708167D01*
X696933Y708250D01*
X697093Y708458D01*
X697173Y708833D01*
Y710667D01*
G01Y711333D02*
X697120Y711375D01*
Y711458D01*
X697173Y711500D01*
X697227Y711458D01*
Y711375D01*
X697173Y711333D01*
G01X698573Y708375D02*
X698760Y708208D01*
X698920Y708167D01*
X699133Y708250D01*
X699293Y708458D01*
X699373Y708833D01*
Y710667D01*
G01Y711333D02*
X699320Y711375D01*
Y711458D01*
X699373Y711500D01*
X699427Y711458D01*
Y711375D01*
X699373Y711333D01*
G01X700533Y710667D02*
X700853Y709000D01*
X701200Y710667D01*
X701547Y709000D01*
X701867Y710667D01*
G01X728145Y838650D02*
X783855D01*
X787650Y834855D01*
Y705145D01*
X784355Y701850D01*
X596645D01*
X591850Y706645D01*
Y829355D01*
X593645Y831150D01*
X619650D01*
Y806355D01*
X632855Y793150D01*
X650355D01*
X652150Y791355D01*
Y788952D01*
X642600D01*
G03X641644Y788556I0J-1352D01*
G01X636544Y783456D01*
G03X636148Y782500I956J-956D01*
G01Y752544D01*
G03X638852I1352J-1544D01*
G01Y781940D01*
X643160Y786248D01*
X652756D01*
X653855Y785150D01*
X661148D01*
Y785100D01*
G03X662000Y784248I852J0D01*
G01X667000D01*
G03X667852Y785100I0J852D01*
G01Y785150D01*
X668648D01*
Y783100D01*
G03X669044Y782144I1352J0D01*
G01X675144Y776044D01*
G03X676100Y775648I956J956D01*
G01X676248D01*
Y775400D01*
G03X677100Y774548I852J0D01*
G01X680900D01*
G03X681752Y775400I0J852D01*
G01Y778600D01*
G03X680900Y779452I-852J0D01*
G01X677100D01*
G03X676262Y778750I0J-851D01*
G01X671352Y783660D01*
Y785150D01*
X677798D01*
Y785052D01*
X677100D01*
G03X676248Y784200I0J-852D01*
G01Y781000D01*
G03X677100Y780148I852J0D01*
G01X680900D01*
G03X681752Y781000I0J852D01*
G01Y784200D01*
G03X680900Y785052I-852J0D01*
G01X680202D01*
Y785150D01*
X692145D01*
X695850Y788855D01*
Y789198D01*
X696737D01*
G03Y791602I1663J1202D01*
G01X695850D01*
Y793355D01*
X701645Y799150D01*
X718645D01*
X720794Y801298D01*
X747002D01*
X756298Y792002D01*
Y722998D01*
X754164Y720863D01*
G03X755863Y719164I-1664J-3363D01*
G01X758350Y721650D01*
G03X758702Y722500I-850J850D01*
G01Y792500D01*
G03X758350Y793350I-1202J0D01*
G01X748350Y803350D01*
G03X747500Y803702I-850J-850D01*
G01X722350D01*
Y804798D01*
X752002D01*
X761298Y795502D01*
Y731054D01*
G03X763702I1202J-3554D01*
G01Y796000D01*
G03X763350Y796850I-1202J0D01*
G01X753350Y806850D01*
G03X752500Y807202I-850J-850D01*
G01X722350D01*
Y813298D01*
X740837D01*
G03Y815702I1663J1202D01*
G01X722350D01*
Y817298D01*
X757502D01*
X766798Y808002D01*
Y723498D01*
X764164Y720863D01*
G03X765863Y719164I-1664J-3363D01*
G01X768850Y722150D01*
G03X769202Y723000I-850J850D01*
G01Y808500D01*
G03X768850Y809350I-1202J0D01*
G01X758850Y819350D01*
G03X758000Y819702I-850J-850D01*
G01X722350D01*
Y821298D01*
X728337D01*
G03Y823702I1663J1202D01*
G01X722350D01*
Y825298D01*
X733470D01*
G03X735173Y827026I2030J-298D01*
G01X734850Y827350D01*
G03X734000Y827702I-850J-850D01*
G01X722350D01*
Y828798D01*
X723337D01*
G03Y831202I1663J1202D01*
G01X722350D01*
Y832855D01*
X728145Y838650D01*
G01X655327Y732974D02*
G02X657026Y734673I-327J2026D01*
G01X662998Y728702D01*
X728748D01*
Y730400D01*
G02X729600Y731252I852J0D01*
G01X735400D01*
G02X736252Y730400I0J-852D01*
G01Y724600D01*
G02X735400Y723748I-852J0D01*
G01X729600D01*
G02X728748Y724600I0J852D01*
G01Y726298D01*
X662500D01*
G02X661650Y726650I0J1202D01*
G01X655327Y732974D01*
G01X746252Y717500D02*
G02I-3752J0D01*
G01Y727500D02*
G02I-3752J0D01*
G01X736252Y717500D02*
G02I-3752J0D01*
G01X673148Y712352D02*
X702852D01*
Y707316D01*
X673148D01*
Y712352D01*
G01X614600Y731252D02*
X620400D01*
G02X621252Y730400I0J-852D01*
G01Y724600D01*
G02X620400Y723748I-852J0D01*
G01X614600D01*
G02X613748Y724600I0J852D01*
G01Y730400D01*
G02X614600Y731252I852J0D01*
G01X641252Y727500D02*
G02I-3752J0D01*
G01Y717500D02*
G02I-3752J0D01*
G01X651252Y727500D02*
G02I-3752J0D01*
G01Y717500D02*
G02I-3752J0D01*
G01X756252Y727500D02*
G02I-3752J0D01*
G01X676337Y723702D02*
G02Y721298I1663J-1202D01*
G01X632998D01*
X630863Y719164D01*
G02X629164Y720863I-3363J-1664D01*
G01X631650Y723350D01*
G02X632500Y723702I850J-850D01*
G01X676337D01*
G01X669337Y747702D02*
G02Y745298I1663J-1202D01*
G01X631498D01*
X623702Y737502D01*
Y722500D01*
G02X623350Y721650I-1202J0D01*
G01X620863Y719164D01*
G02X619164Y720863I-3363J-1664D01*
G01X621298Y722998D01*
Y738000D01*
G02X621650Y738850I1202J0D01*
G01X630150Y747350D01*
G02X631000Y747702I850J-850D01*
G01X669337D01*
G01X716474Y746673D02*
G02X718173Y744974I2026J327D01*
G01X713850Y740650D01*
G02X713000Y740298I-850J850D01*
G01X632998D01*
X628702Y736002D01*
Y731054D01*
G02X626298I-1202J-3554D01*
G01Y736500D01*
G02X626650Y737350I1202J0D01*
G01X631650Y742350D01*
G02X632500Y742702I850J-850D01*
G01X712502D01*
X716474Y746673D01*
G01X591851Y827176D02*
X595825Y831150D01*
G01X591851Y819822D02*
X603179Y831150D01*
G01X591851Y812468D02*
X610533Y831150D01*
G01X591851Y805114D02*
X617887Y831150D01*
G01X591851Y797760D02*
X619650Y825559D01*
G01X591850Y790406D02*
X619650Y818206D01*
G01X591850Y783052D02*
X619650Y810852D01*
G01X591850Y775698D02*
X621078Y804926D01*
G01X591850Y768344D02*
X624755Y801249D01*
G01X591850Y760990D02*
X628432Y797572D01*
G01X591851Y753637D02*
X632109Y793895D01*
G01X591851Y746283D02*
X638718Y793150D01*
G01X591851Y738929D02*
X646072Y793150D01*
G01X649228Y788952D02*
X651890Y791614D01*
G01X638853Y778577D02*
X646524Y786248D01*
G01X591851Y731575D02*
X636148Y775872D01*
G01X638853Y771223D02*
X653317Y785687D01*
G01X591851Y724221D02*
X636148Y768518D01*
G01X638853Y763869D02*
X660134Y785150D01*
G01X591851Y716867D02*
X636148Y761164D01*
G01X638852Y756515D02*
X666585Y784248D01*
G01X591850Y709513D02*
X636148Y753811D01*
G01X722350Y832659D02*
X728341Y838650D01*
G01X672352Y782661D02*
X674841Y785150D01*
G01X637394Y747703D02*
X670439Y780748D01*
G01X632388Y742697D02*
X634989Y745298D01*
G01X623702Y734011D02*
X626303Y736612D01*
G01X620828Y731137D02*
X621298Y731607D01*
G01X594093Y704402D02*
X613863Y724172D01*
G01X727052Y830007D02*
X735695Y838650D01*
G01X724748Y827703D02*
X724993Y827948D01*
G01X681650Y784605D02*
X682195Y785150D01*
G01X676029Y778984D02*
X677193Y780148D01*
G01X644748Y747703D02*
X674116Y777071D01*
G01X639748Y742703D02*
X642343Y745298D01*
G01X628702Y731657D02*
X637343Y740298D01*
G01X623702Y726657D02*
X623819Y726774D01*
G01X618227Y721182D02*
X621298Y724253D01*
G01X598896Y701851D02*
X613818Y716773D01*
G01X732102Y827703D02*
X743049Y838650D01*
G01X728102Y823703D02*
X729697Y825298D01*
G01X724102Y819703D02*
X725697Y821298D01*
G01X696002Y791603D02*
X703549Y799150D01*
G01X681752Y777353D02*
X689549Y785150D01*
G01X652102Y747703D02*
X678947Y774548D01*
G01X647102Y742703D02*
X649697Y745298D01*
G01X631183Y726784D02*
X644697Y740298D01*
G01X621184Y716785D02*
X628216Y723817D01*
G01X606250Y701851D02*
X618215Y713816D01*
G01X737436Y825683D02*
X750403Y838650D01*
G01X731456Y819703D02*
X734818Y823065D01*
G01X727456Y815703D02*
X729051Y817298D01*
G01X722350Y810597D02*
X725051Y813298D01*
G01X659456Y747703D02*
X710903Y799150D01*
G01X654456Y742703D02*
X657051Y745298D01*
G01X640881Y729128D02*
X652051Y740298D01*
G01X635456Y723703D02*
X635872Y724119D01*
G01X630881Y719128D02*
X633051Y721298D01*
G01X613604Y701851D02*
X625872Y714119D01*
G01X738809Y819702D02*
X757757Y838650D01*
G01X734809Y815702D02*
X736405Y817298D01*
G01X726309Y807202D02*
X732405Y813298D01*
G01X722809Y803702D02*
X723905Y804798D01*
G01X666809Y747702D02*
X718257Y799150D01*
G01X661809Y742702D02*
X664405Y745298D01*
G01X655935Y736828D02*
X659405Y740298D01*
G01X649669Y730562D02*
X653172Y734065D01*
G01X642809Y723702D02*
X644438Y725331D01*
G01X639669Y720562D02*
X640405Y721298D01*
G01X620957Y701850D02*
X634438Y715331D01*
G01X746163Y819702D02*
X765111Y838650D01*
G01X742961Y816500D02*
X743759Y817298D01*
G01X733663Y807202D02*
X739759Y813298D01*
G01X730163Y803702D02*
X731259Y804798D01*
G01X673050Y746589D02*
X727759Y801298D01*
G01X669163Y742702D02*
X670911Y744450D01*
G01X659081Y732620D02*
X666759Y740298D01*
G01X650163Y723702D02*
X657380Y730919D01*
G01X647708Y721247D02*
X647759Y721298D01*
G01X628311Y701850D02*
X643753Y717292D01*
G01X753517Y819702D02*
X772465Y838650D01*
G01X741017Y807202D02*
X751113Y817298D01*
G01X737517Y803702D02*
X738613Y804798D01*
G01X676517Y742702D02*
X735113Y801298D01*
G01X662758Y728943D02*
X674113Y740298D01*
G01X657517Y723702D02*
X661057Y727242D01*
G01X651252Y717437D02*
X655113Y721298D01*
G01X635665Y701850D02*
X647563Y713748D01*
G01X759685Y818516D02*
X779819Y838650D01*
G01X748371Y807202D02*
X757984Y816815D01*
G01X744871Y803702D02*
X745967Y804798D01*
G01X683871Y742702D02*
X742467Y801298D01*
G01X669871Y728702D02*
X681467Y740298D01*
G01X664871Y723702D02*
X667467Y726298D01*
G01X643019Y701850D02*
X662467Y721298D01*
G01X763362Y814839D02*
X785514Y836991D01*
G01X754362Y805839D02*
X761661Y813138D01*
G01X750112Y801589D02*
X752661Y804138D01*
G01X691225Y742702D02*
X748411Y799888D01*
G01X677225Y728702D02*
X688821Y740298D01*
G01X672225Y723702D02*
X674821Y726298D01*
G01X650373Y701850D02*
X669821Y721298D01*
G01X767039Y811162D02*
X787650Y831773D01*
G01X758039Y802162D02*
X765338Y809461D01*
G01X753789Y797912D02*
X756338Y800461D01*
G01X698579Y742702D02*
X752088Y796211D01*
G01X684579Y728702D02*
X696175Y740298D01*
G01X679627Y723751D02*
X682174Y726298D01*
G01X657727Y701850D02*
X676749Y720873D01*
G01X769202Y805972D02*
X787650Y824420D01*
G01X761715Y798485D02*
X766798Y803568D01*
G01X757465Y794235D02*
X760015Y796785D01*
G01X705933Y742703D02*
X755765Y792535D01*
G01X691933Y728703D02*
X703528Y740298D01*
G01X675583Y712353D02*
X689528Y726298D01*
G01X665081Y701851D02*
X673148Y709918D01*
G01X769202Y798618D02*
X787650Y817066D01*
G01X763702Y793118D02*
X766798Y796214D01*
G01X758702Y788118D02*
X761298Y790714D01*
G01X719419Y748835D02*
X756298Y785714D01*
G01X699287Y728703D02*
X710882Y740298D01*
G01X682937Y712353D02*
X696882Y726298D01*
G01X672435Y701851D02*
X677900Y707316D01*
G01X769202Y791264D02*
X787650Y809712D01*
G01X763702Y785764D02*
X766798Y788860D01*
G01X758702Y780764D02*
X761298Y783360D01*
G01X706641Y728703D02*
X756298Y778360D01*
G01X690291Y712353D02*
X704236Y726298D01*
G01X679789Y701851D02*
X685254Y707316D01*
G01X769202Y783910D02*
X787650Y802358D01*
G01X763702Y778410D02*
X766798Y781506D01*
G01X758702Y773410D02*
X761298Y776006D01*
G01X713995Y728703D02*
X756298Y771006D01*
G01X697645Y712353D02*
X711590Y726298D01*
G01X687143Y701851D02*
X692608Y707316D01*
G01X769202Y776556D02*
X787650Y795004D01*
G01X763702Y771056D02*
X766798Y774152D01*
G01X758702Y766056D02*
X761298Y768652D01*
G01X721349Y728703D02*
X756298Y763652D01*
G01X702852Y710206D02*
X718944Y726298D01*
G01X694497Y701851D02*
X699962Y707316D01*
G01X769202Y769202D02*
X787650Y787650D01*
G01X763702Y763702D02*
X766798Y766798D01*
G01X758702Y758702D02*
X761298Y761298D01*
G01X731252Y731252D02*
X756298Y756298D01*
G01X728702Y728702D02*
X728748Y728748D01*
G01X701850Y701850D02*
X726298Y726298D01*
G01X769203Y761849D02*
X787650Y780296D01*
G01X763703Y756349D02*
X766798Y759444D01*
G01X758703Y751349D02*
X761298Y753944D01*
G01X736253Y728899D02*
X756298Y748944D01*
G01X709204Y701850D02*
X731102Y723748D01*
G01X769203Y754495D02*
X787650Y772942D01*
G01X763703Y748995D02*
X766798Y752090D01*
G01X758703Y743995D02*
X761298Y746590D01*
G01X745003Y730296D02*
X756298Y741591D01*
G01X735003Y720296D02*
X739704Y724997D01*
G01X716558Y701850D02*
X729704Y714997D01*
G01X769203Y747141D02*
X787650Y765588D01*
G01X763703Y741641D02*
X766798Y744736D01*
G01X758703Y736641D02*
X761298Y739236D01*
G01X753241Y731179D02*
X756298Y734236D01*
G01X743241Y721179D02*
X748821Y726759D01*
G01X723912Y701850D02*
X738821Y716759D01*
G01X769203Y739787D02*
X787650Y758234D01*
G01X763703Y734287D02*
X766798Y737382D01*
G01X758703Y729287D02*
X761298Y731882D01*
G01X756179Y726763D02*
X756298Y726882D01*
G01X746179Y716763D02*
X753237Y723821D01*
G01X731266Y701850D02*
X743237Y713821D01*
G01X769203Y732433D02*
X787650Y750880D01*
G01X765886Y729116D02*
X766798Y730028D01*
G01X755887Y719117D02*
X760884Y724114D01*
G01X738620Y701850D02*
X750883Y714113D01*
G01X769202Y725079D02*
X787650Y743527D01*
G01X745974Y701851D02*
X759445Y715321D01*
G01X753328Y701851D02*
X787650Y736173D01*
G01X760682Y701851D02*
X787650Y728819D01*
G01X768036Y701851D02*
X787650Y721465D01*
G01X775390Y701851D02*
X787650Y714111D01*
G01X782744Y701851D02*
X787650Y706757D01*
G01X599792Y701850D02*
X591850Y709792D01*
G01X607146Y701850D02*
X591850Y717146D01*
G01X614499Y701851D02*
X591851Y724499D01*
G01X621853Y701851D02*
X591851Y731853D01*
G01X613752Y717305D02*
X591850Y739207D01*
G01X629207Y701851D02*
X617305Y713752D01*
G01X613748Y724664D02*
X591851Y746561D01*
G01X617174Y721238D02*
X614664Y723748D01*
G01X636561Y701851D02*
X621238Y717174D01*
G01X614517Y731249D02*
X591851Y753915D01*
G01X621298Y724468D02*
X621249Y724517D01*
G01X625257Y720509D02*
X623642Y722124D01*
G01X643915Y701851D02*
X630509Y715257D01*
G01X621298Y731822D02*
X591851Y761269D01*
G01X624079Y729041D02*
X623703Y729417D01*
G01X630710Y722410D02*
X629041Y724079D01*
G01X634079Y719041D02*
X632410Y720710D01*
G01X651269Y701851D02*
X639041Y714079D01*
G01X621636Y738837D02*
X591850Y768623D01*
G01X626298Y734175D02*
X623702Y736771D01*
G01X633852Y726621D02*
X628702Y731771D01*
G01X636771Y723702D02*
X636621Y723852D01*
G01X643852Y716621D02*
X639175Y721298D01*
G01X658623Y701850D02*
X646621Y713852D01*
G01X625313Y742514D02*
X591850Y775977D01*
G01X628563Y739264D02*
X627014Y740813D01*
G01X636668Y731159D02*
X630264Y737563D01*
G01X644125Y723702D02*
X641159Y726668D01*
G01X646668Y721159D02*
X646529Y721298D01*
G01X665977Y701850D02*
X651159Y716668D01*
G01X628990Y746191D02*
X591850Y783331D01*
G01X632479Y742702D02*
X630691Y744490D01*
G01X644939Y730243D02*
X634884Y740298D01*
G01X651479Y723702D02*
X650243Y724939D01*
G01X673331Y701850D02*
X653883Y721298D01*
G01X634833Y747702D02*
X591850Y790685D01*
G01X639833Y742702D02*
X637237Y745298D01*
G01X658833Y723702D02*
X642237Y740298D01*
G01X673148Y709387D02*
X661237Y721298D01*
G01X680685Y701850D02*
X675219Y707316D01*
G01X636148Y753741D02*
X591850Y798039D01*
G01X642187Y747702D02*
X639469Y750420D01*
G01X647187Y742702D02*
X644591Y745298D01*
G01X653494Y736395D02*
X649591Y740298D01*
G01X666187Y723702D02*
X663591Y726298D01*
G01X677537Y712352D02*
X668591Y721298D01*
G01X688039Y701850D02*
X682573Y707316D01*
G01X636148Y761095D02*
X591851Y805392D01*
G01X649540Y747703D02*
X638853Y758390D01*
G01X654540Y742703D02*
X651945Y745298D01*
G01X668540Y728703D02*
X656945Y740298D01*
G01X673540Y723703D02*
X670945Y726298D01*
G01X684890Y712353D02*
X675945Y721298D01*
G01X695392Y701851D02*
X689927Y707316D01*
G01X636148Y768449D02*
X591851Y812746D01*
G01X656894Y747703D02*
X638853Y765744D01*
G01X661894Y742703D02*
X659299Y745298D01*
G01X675894Y728703D02*
X664299Y740298D01*
G01X692244Y712353D02*
X678299Y726298D01*
G01X702746Y701851D02*
X697281Y707316D01*
G01X636148Y775803D02*
X591851Y820100D01*
G01X664248Y747703D02*
X638853Y773098D01*
G01X669248Y742703D02*
X666653Y745298D01*
G01X683248Y728703D02*
X671653Y740298D01*
G01X699598Y712353D02*
X685653Y726298D01*
G01X710100Y701851D02*
X702853Y709098D01*
G01X636261Y783043D02*
X591850Y827454D01*
G01X670766Y748539D02*
X638853Y780452D01*
G01X676602Y742703D02*
X673039Y746266D01*
G01X690602Y728703D02*
X679007Y740298D01*
G01X717454Y701851D02*
X693007Y726298D01*
G01X619650Y807009D02*
X595509Y831150D01*
G01X639873Y786786D02*
X633509Y793150D01*
G01X683956Y742703D02*
X641786Y784873D01*
G01X697956Y728703D02*
X686361Y740298D01*
G01X724808Y701851D02*
X700361Y726298D01*
G01X619650Y814363D02*
X602863Y831150D01*
G01X645060Y788953D02*
X640863Y793150D01*
G01X691310Y742703D02*
X647765Y786248D01*
G01X705310Y728703D02*
X693715Y740298D01*
G01X732162Y701851D02*
X707715Y726298D01*
G01X619650Y821716D02*
X610216Y831150D01*
G01X652150Y789216D02*
X648216Y793150D01*
G01X698664Y742702D02*
X656216Y785150D01*
G01X712664Y728702D02*
X701068Y740298D01*
G01X739516Y701850D02*
X715068Y726298D01*
G01X619650Y829070D02*
X617570Y831150D01*
G01X706018Y742702D02*
X664472Y784248D01*
G01X720018Y728702D02*
X708422Y740298D01*
G01X729285Y719435D02*
X722422Y726298D01*
G01X746870Y701850D02*
X734435Y714285D01*
G01X676714Y779360D02*
X671352Y784722D01*
G01X712937Y743137D02*
X681379Y774695D01*
G01X727372Y728702D02*
X714637Y741437D01*
G01X738752Y717322D02*
X732326Y723748D01*
G01X754224Y701850D02*
X742322Y713752D01*
G01X716447Y746981D02*
X681752Y781676D01*
G01X732176Y731252D02*
X718481Y744947D01*
G01X742189Y721240D02*
X736253Y727176D01*
G01X761578Y701850D02*
X746240Y717189D01*
G01X740266Y730516D02*
X685632Y785150D01*
G01X750266Y720516D02*
X745516Y725266D01*
G01X768932Y701850D02*
X755516Y715266D01*
G01X749084Y729052D02*
X692566Y785570D01*
G01X755718Y722418D02*
X754052Y724084D01*
G01X759083Y719053D02*
X757418Y720718D01*
G01X776286Y701850D02*
X764053Y714083D01*
G01X756298Y729192D02*
X696292Y789198D01*
G01X758847Y726643D02*
X758703Y726787D01*
G01X764395Y721095D02*
X761643Y723847D01*
G01X783639Y701851D02*
X766095Y719395D01*
G01X756298Y736546D02*
X697670Y795174D01*
G01X761298Y731546D02*
X758703Y734141D01*
G01X766798Y726046D02*
X766162Y726682D01*
G01X787650Y705194D02*
X769203Y723641D01*
G01X756298Y743900D02*
X701347Y798851D01*
G01X761298Y738900D02*
X758703Y741495D01*
G01X766798Y733400D02*
X763703Y736495D01*
G01X787650Y712548D02*
X769203Y730995D01*
G01X756298Y751254D02*
X708402Y799150D01*
G01X761298Y746254D02*
X758703Y748849D01*
G01X766798Y740754D02*
X763703Y743849D01*
G01X787650Y719902D02*
X769203Y738349D01*
G01X756298Y758608D02*
X715756Y799150D01*
G01X761298Y753608D02*
X758703Y756203D01*
G01X766798Y748108D02*
X763703Y751203D01*
G01X787650Y727256D02*
X769203Y745703D01*
G01X756298Y765961D02*
X720961Y801298D01*
G01X761298Y760961D02*
X758702Y763557D01*
G01X766798Y755461D02*
X763702Y758557D01*
G01X787650Y734609D02*
X769202Y753057D01*
G01X722411Y807202D02*
X722350Y807263D01*
G01X725911Y803702D02*
X724815Y804798D01*
G01X756298Y773315D02*
X728315Y801298D01*
G01X761298Y768315D02*
X758702Y770911D01*
G01X766798Y762815D02*
X763702Y765911D01*
G01X787650Y741963D02*
X769202Y760411D01*
G01X729765Y807202D02*
X723669Y813298D01*
G01X733265Y803702D02*
X732169Y804798D01*
G01X756298Y780669D02*
X735669Y801298D01*
G01X761298Y775669D02*
X758702Y778265D01*
G01X766798Y770169D02*
X763702Y773265D01*
G01X787650Y749317D02*
X769202Y767765D01*
G01X724619Y819702D02*
X723023Y821298D01*
G01X728619Y815702D02*
X727023Y817298D01*
G01X737119Y807202D02*
X731023Y813298D01*
G01X740619Y803702D02*
X739523Y804798D01*
G01X756298Y788023D02*
X743023Y801298D01*
G01X761298Y783023D02*
X758702Y785619D01*
G01X766798Y777523D02*
X763702Y780619D01*
G01X787650Y756671D02*
X769202Y775119D01*
G01X723973Y827702D02*
X722877Y828798D01*
G01X727973Y823702D02*
X726377Y825298D01*
G01X731973Y819702D02*
X730979Y820696D01*
G01X735973Y815702D02*
X734377Y817298D01*
G01X744473Y807202D02*
X738377Y813298D01*
G01X748192Y803483D02*
X746877Y804798D01*
G01X761298Y790377D02*
X758483Y793192D01*
G01X766798Y784877D02*
X763702Y787973D01*
G01X787650Y764025D02*
X769202Y782473D01*
G01X731327Y827702D02*
X724262Y834767D01*
G01X739327Y819702D02*
X736016Y823013D01*
G01X742477Y816552D02*
X741731Y817298D01*
G01X751827Y807202D02*
X744552Y814477D01*
G01X766798Y792231D02*
X763702Y795327D01*
G01X787650Y771379D02*
X769202Y789827D01*
G01X746680Y819703D02*
X727939Y838444D01*
G01X766798Y799585D02*
X749085Y817298D01*
G01X787650Y778733D02*
X769203Y797180D01*
G01X754034Y819703D02*
X735087Y838650D01*
G01X766798Y806939D02*
X756439Y817298D01*
G01X787650Y786087D02*
X769203Y804534D01*
G01X787650Y793441D02*
X742441Y838650D01*
G01X787650Y800795D02*
X749795Y838650D01*
G01X787650Y808149D02*
X757149Y838650D01*
G01X787649Y815503D02*
X764502Y838650D01*
G01X787649Y822857D02*
X771856Y838650D01*
G01X787650Y830210D02*
X779210Y838650D01*
G01X617500Y717500D02*
X622500Y722500D01*
Y738000D01*
X631000Y746500D01*
X671000D01*
G01X678000Y722500D02*
X632500D01*
X627500Y717500D01*
G01Y727500D02*
Y736500D01*
X632500Y741500D01*
X713000D01*
X718500Y747000D01*
G01X654500Y830500D02*
X630500D01*
X627500Y827500D01*
G01X732500Y727500D02*
X662500D01*
X655000Y735000D01*
G01X641500Y827000D02*
Y802500D01*
G01X660000Y809500D02*
X664999D01*
X666078Y810579D01*
X671626D01*
G01X654500Y822000D02*
X645000D01*
G01X671626Y812547D02*
X653547D01*
X653500Y812500D01*
X651000D01*
G01X660100Y830500D02*
X662550D01*
X664802Y828248D01*
Y824820D01*
X669201Y820421D01*
X671626D01*
G01X647100Y827000D02*
X660000D01*
X668547Y818453D01*
X671626D01*
G01X660100Y822000D02*
Y816900D01*
X662484Y814516D01*
X671626D01*
G01X683000Y790400D02*
Y787950D01*
X687475Y783475D01*
G01D02*
X692450Y778500D01*
G01X700000Y802500D02*
X687122D01*
X684421Y805201D01*
Y807626D01*
G01X691500Y796000D02*
X691200D01*
X682453Y804747D01*
Y807626D01*
G01X683000Y796000D02*
Y800000D01*
X680484Y802516D01*
Y807626D01*
G01X679000Y782600D02*
Y799501D01*
X678516Y799985D01*
Y807626D01*
G01X700000Y818500D02*
X696500D01*
X694484Y816484D01*
X687374D01*
G01X700000Y810500D02*
X696500D01*
X694453Y812547D01*
X687374D01*
G01X713500Y814500D02*
X711050D01*
X711034Y814516D01*
X687374D01*
G01X700000Y826500D02*
X697500D01*
X691421Y820421D01*
X687374D01*
G01X713500Y806000D02*
X696500D01*
X691921Y810579D01*
X687374D01*
G01X713500Y822500D02*
X697500D01*
X693453Y818453D01*
X687374D01*
G01X713500Y830000D02*
X696000D01*
X695000Y831000D01*
X688500D01*
X684421Y826921D01*
Y823374D01*
G01X700000Y834000D02*
X688000D01*
X682453Y828453D01*
Y823374D01*
G01X692450Y778500D02*
X745500D01*
X752500Y771500D01*
Y727500D01*
G01X691500Y790400D02*
X698400D01*
G01X705600Y802500D02*
X747500D01*
X757500Y792500D01*
Y722500D01*
X752500Y717500D01*
G01X719100Y806000D02*
X752500D01*
X762500Y796000D01*
Y727500D01*
G01X705600Y810500D02*
X709500D01*
G01X719100Y830000D02*
X725000D01*
G01X719100Y822500D02*
X730000D01*
G01X705600Y834000D02*
X716500D01*
G01X705600Y826500D02*
X734000D01*
X735500Y825000D01*
G01X742500Y814500D02*
X719100D01*
G01X705600Y818500D02*
X758000D01*
X768000Y808500D01*
Y723000D01*
X762500Y717500D01*
G54D16*
X654500Y822000D03*
X660100D03*
X641500Y827000D03*
X647100D03*
X654500Y830500D03*
X660100D03*
X700000Y802500D03*
X705600D03*
X713500Y806000D03*
X719100D03*
X700000Y810500D03*
X705600D03*
X713500Y830000D03*
X719100D03*
X700000Y834000D03*
X705600D03*
X713500Y814500D03*
X719100D03*
X700000Y818500D03*
X705600D03*
X713500Y822500D03*
X719100D03*
X700000Y826500D03*
X705600D03*
G54D17*
X657500Y859429D03*
Y895571D03*
G54D18*
X668439Y804439D03*
X690561Y826561D03*
G54D19*
X687374Y810579D03*
X671626D03*
X687374Y820421D03*
Y818453D03*
Y816484D03*
Y814516D03*
Y812547D03*
X671626D03*
Y814516D03*
Y816484D03*
Y818453D03*
Y820421D03*
M02*
