M48
INCH
T01C.013
T02C.037
T03C.038
;LEADER: 12 
;HEADER: 
;CODE  : ASCII 
;FILE  : touchcontroller-1-2.drl for  ... layers TOP and BOTTOM
;DESIGN: touchcontroller.brd
;T01 Holesize 1. = 13.000000 Tolerance = +0.000000/-0.000000 PLATED MILS Quantity = 26
;T02 Holesize 2. = 37.000000 Tolerance = +0.000000/-0.000000 PLATED MILS Quantity = 35
;T03 Holesize 3. = 38.000000 Tolerance = +0.000000/-0.000000 PLATED MILS Quantity = 6
%
G90
T01
X0718000Y0961500
X0687475Y0783475
X0742500Y0814500
X0735500Y0825000
X0716500Y0834000
X0730000Y0822500
X0718500Y0747000
X0725000Y0830000
X0678000Y0722500
X0709500Y0810500
X0671000Y0746500
X0698400Y0790400
X0655000Y0735000
X0645000Y0822000
X0641500Y0802500
X0627500Y0827500
X0663000Y0845500
X0665000Y0818000
X0670000Y0789000
X0682000Y0812500
X0676500Y0812500
X0682000Y0818000
X0676500Y0818000
X0655500Y0804000
X0657500Y0851500
X0637500Y0751000
T02
X0622500Y0919000
X0622500Y0909000
X0622500Y0952500
R04X0010000
X0598000Y0884000
X0608000Y0884000
X0617500Y0727500
X0617500Y0717500
X0627500Y0727500
X0627500Y0717500
X0637500Y0727500
X0637500Y0717500
X0647500Y0727500
X0647500Y0717500
X0685000Y0932000
X0695000Y0932000
X0712500Y0952500
R04X0010000
X0732500Y0927500
R02X-0010000
X0732500Y0727500
X0732500Y0717500
X0742500Y0727500
X0742500Y0717500
X0752500Y0727500
X0752500Y0717500
X0762500Y0727500
X0762500Y0717500
T03
X0622500Y0967500
X0672000Y0877000
X0632500Y0967500
X0742500Y0967500
X0752500Y0967500
X0732500Y0967500
M30
